<?xml version="1.0" encoding="UTF-8"?>
<svg version="1.1" xmlns="http://www.w3.org/2000/svg" width="500" height="500">
<path d="M0 0 C3.2435036 0.02159881 6.48483187 0.00004236 9.72827148 -0.02539062 C11.79923989 -0.02275002 13.87020695 -0.01763057 15.94116211 -0.00976562 C16.90577866 -0.01786255 17.8703952 -0.02595947 18.86424255 -0.03430176 C23.19072713 0.0261852 25.62745809 0.11230272 29.37304688 2.4296875 C31.85738154 5.14228841 32.24368129 6.12277363 32.66381836 9.83398438 C32.28881836 13.52148437 32.28881836 13.52148437 29.97631836 16.39648438 C26.58949546 19.07443737 24.22613536 19.64391384 20.03613281 19.66333008 C18.75383537 19.67388176 18.75383537 19.67388176 17.44563293 19.68464661 C16.52376694 19.68881088 15.60190094 19.69297516 14.65209961 19.69726562 C12.69310459 19.72047257 10.73412019 19.74459025 8.77514648 19.76953125 C5.69214867 19.8045681 2.60953939 19.83394848 -0.47363281 19.84741211 C-3.45303337 19.86296347 -6.43130194 19.90322674 -9.41040039 19.94726562 C-10.32214523 19.94535721 -11.23389008 19.94344879 -12.17326355 19.94148254 C-19.19385309 20.07446287 -24.35639591 21.82293644 -29.84790039 26.24023438 C-37.98863391 35.59079982 -40.85560719 46.08501637 -40.87231445 58.25219727 C-40.87727936 59.12122681 -40.88224426 59.99025635 -40.88735962 60.88562012 C-40.90193925 63.7551351 -40.90877783 66.62459471 -40.91430664 69.49414062 C-40.9200635 71.49848938 -40.92582116 73.50283814 -40.93157959 75.50718689 C-40.94207901 79.71109269 -40.94792796 83.91497943 -40.95141602 88.11889648 C-40.95688492 93.4794392 -40.98088313 98.8397259 -41.00938797 104.20018864 C-41.02810962 108.34316212 -41.0332251 112.48607526 -41.03475189 116.62908745 C-41.03775974 118.60364614 -41.04572434 120.57820425 -41.05893707 122.55272102 C-41.15200217 137.53527271 -40.1655488 150.24230705 -32.02368164 163.20898438 C-26.68384122 168.5488248 -20.00723131 171.59610211 -12.46850586 171.69848633 C-11.22603592 171.71773918 -11.22603592 171.71773918 -9.95846558 171.73738098 C-9.06990875 171.74476791 -8.18135193 171.75215485 -7.26586914 171.75976562 C-6.34081573 171.76783737 -5.41576233 171.77590912 -4.462677 171.78422546 C-2.50418967 171.79804462 -0.54567846 171.80877646 1.4128418 171.81665039 C3.40282313 171.82814475 5.39277425 171.848556 7.38256836 171.87817383 C10.2708005 171.92114204 13.15811754 171.93706168 16.04663086 171.94726562 C17.36124802 171.97352776 17.36124802 171.97352776 18.7024231 172.00032043 C26.15450246 171.97458757 32.84475714 170.13749412 38.83959961 165.58398438 C47.15498509 155.84889893 50.40954858 145.56959645 50.41479492 132.83935547 C50.42050507 130.91233292 50.42050507 130.91233292 50.42633057 128.94638062 C50.42652443 128.26990856 50.42671829 127.59343651 50.42691803 126.8964653 C50.43126474 123.27919319 50.4623476 119.66209375 50.48803711 116.04492188 C50.51843028 111.45827732 50.54112992 106.87191115 50.53930664 102.28515625 C50.53851916 98.56146695 50.5618828 94.8386046 50.60118866 91.11513138 C50.61163192 89.70142969 50.61318491 88.28763239 50.60553741 86.87391281 C50.59590427 84.89752906 50.61988709 82.92106852 50.64526367 80.94482422 C50.6489093 79.82232269 50.65255493 78.69982117 50.65631104 77.54330444 C51.4875099 73.57223042 53.19740835 72.05895005 56.28881836 69.52148438 C59.37988717 68.68225659 62.15837592 68.88954459 65.28881836 69.52148438 C68.09076876 71.4128009 69.0409301 72.55007706 69.87348938 75.81265259 C70.30731252 78.64210582 70.42288123 81.31318525 70.43408203 84.17529297 C70.44046188 85.28770355 70.44684174 86.40011414 70.45341492 87.54623413 C70.45508415 89.33995956 70.45508415 89.33995956 70.45678711 91.16992188 C70.46011551 92.41464264 70.46344391 93.6593634 70.46687317 94.94180298 C70.47193536 97.57956509 70.47471461 100.21722423 70.47412109 102.85498047 C70.47400061 106.84675734 70.49441008 110.83834663 70.51342773 114.83007812 C70.56650149 138.40508858 70.18445759 160.26070451 53.33178711 178.63867188 C42.28342161 188.82091312 29.83908928 191.66925699 15.24194336 191.68945312 C14.3900946 191.69278152 13.53824585 191.69610992 12.6605835 191.69953918 C10.86544327 191.70457895 9.07029377 191.70694843 7.27514648 191.70678711 C4.56079258 191.70896673 1.84685019 191.72713514 -0.86743164 191.74609375 C-18.76626231 191.80648249 -31.91177229 189.80461514 -45.42211914 177.00195312 C-54.78553678 166.85558759 -58.42023624 155.50621772 -60.32055664 142.14257812 C-60.45574707 141.21602417 -60.5909375 140.28947021 -60.73022461 139.33483887 C-61.06097279 137.06423797 -61.38785042 134.79315123 -61.71118164 132.52148438 C-76.71815445 132.2567696 -91.72519066 131.99587871 -106.73230267 131.73918152 C-113.70502972 131.6198296 -120.67773344 131.49934851 -127.65039062 131.37597656 C-135.7161679 131.23339557 -143.78200368 131.09465767 -151.84790039 130.95898438 C-153.81312464 130.92576584 -153.81312464 130.92576584 -155.81805038 130.89187622 C-173.25084539 130.60180998 -190.67783994 130.4072325 -208.11296082 130.55834961 C-208.79673735 130.56261459 -209.48051388 130.56687958 -210.18501091 130.5712738 C-211.95966268 130.58290403 -213.73427122 130.60070636 -215.50886536 130.61914062 C-218.97069875 130.51357027 -222.29386787 130.07042386 -225.71118164 129.52148438 C-225.71118164 129.19148437 -225.71118164 128.86148438 -225.71118164 128.52148438 C-221.85566144 127.63779663 -218.1853399 127.33283775 -214.23461914 127.20507812 C-212.94330078 127.16318359 -211.65198242 127.12128906 -210.3215332 127.078125 C-208.90976289 127.03793284 -207.49797846 126.99823433 -206.08618164 126.95898438 C-204.99509094 126.92671753 -204.99509094 126.92671753 -203.88195801 126.89379883 C-192.19822017 126.55275108 -180.52793039 126.47647377 -168.84014893 126.53146362 C-153.63688749 126.59734313 -138.44899554 126.26358799 -123.2512207 125.87695312 C-114.26513696 125.65079688 -105.29652879 125.500748 -96.30737305 125.53515625 C-89.79162165 125.51038489 -83.28454877 125.25941236 -76.77368164 125.02148438 C-75.39673691 124.97306791 -74.01978378 124.92488997 -72.64282227 124.87695312 C-69.33218561 124.76079044 -66.02165215 124.64227398 -62.71118164 124.52148438 C-62.05118164 121.88148438 -61.39118164 119.24148438 -60.71118164 116.52148438 C-61.71024536 116.52481529 -61.71024536 116.52481529 -62.72949219 116.5282135 C-69.73900815 116.55054891 -76.7485138 116.56550724 -83.75805664 116.57641602 C-86.36483166 116.58140675 -88.97160394 116.5882017 -91.57836914 116.59692383 C-119.35574653 116.68745592 -119.35574653 116.68745592 -132.71118164 115.52148438 C-132.38118164 114.86148438 -132.05118164 114.20148438 -131.71118164 113.52148438 C-97.06118164 113.02648437 -97.06118164 113.02648437 -61.71118164 112.52148438 C-61.38118164 106.91148437 -61.05118164 101.30148437 -60.71118164 95.52148438 C-63.04696289 95.5293396 -63.04696289 95.5293396 -65.42993164 95.53735352 C-73.19033891 95.56079058 -80.95074616 95.57494975 -88.71118164 95.58398438 C-89.81375494 95.5852684 -89.81375494 95.5852684 -90.93860245 95.58657837 C-121.66396366 95.61786061 -152.382656 95.30778099 -183.10559082 94.94900513 C-203.50666311 94.71152058 -223.9061238 94.47546525 -244.30883789 94.49023438 C-245.0590238 94.49074295 -245.80920971 94.49125153 -246.58212852 94.49177551 C-254.06169162 94.49844766 -261.54103392 94.52066844 -269.02050781 94.55859375 C-285.2755917 94.62512647 -301.47151933 94.22400263 -317.71118164 93.52148438 C-317.71118164 92.86148438 -317.71118164 92.20148438 -317.71118164 91.52148438 C-316.75120396 91.5120987 -315.79122627 91.50271303 -314.80215836 91.49304295 C-291.12244171 91.26143153 -267.44274996 91.02738992 -243.7630806 90.79099369 C-232.31040727 90.67671335 -220.85772776 90.56315107 -209.4050293 90.45141602 C-196.15809897 90.32207561 -182.91118892 90.1908168 -169.66430664 90.05664062 C-168.58914858 90.04575047 -167.51399052 90.03486032 -166.40625191 90.02364016 C-131.17167686 89.66544148 -95.94113988 89.20098451 -60.71118164 88.52148438 C-60.71118164 85.88148438 -60.71118164 83.24148438 -60.71118164 80.52148438 C-61.74029537 80.50740587 -61.74029537 80.50740587 -62.79019928 80.49304295 C-79.88973862 80.25911213 -96.98927677 80.02509487 -114.08881378 79.79099369 C-121.55903139 79.68872437 -129.02924911 79.58646272 -136.49946785 79.48427618 C-138.10003729 79.46238116 -139.7006067 79.44048361 -141.30117607 79.41858351 C-145.29832785 79.36389204 -149.29548005 79.30923091 -153.29263306 79.25462914 C-161.33141353 79.14476257 -169.37018314 79.03417346 -177.40893555 78.92227173 C-180.6450999 78.87730716 -183.88126537 78.83242401 -187.11743164 78.78759766 C-188.31742105 78.77096443 -188.31742105 78.77096443 -189.54165268 78.75399518 C-200.4178845 78.60361067 -211.29420183 78.46292213 -222.17066193 78.33009815 C-228.0386713 78.25838481 -233.90664338 78.1838128 -239.77460814 78.10854501 C-244.51608959 78.04798405 -249.25759612 77.99120881 -253.99915791 77.93732691 C-256.91838414 77.90322596 -259.83755426 77.86543823 -262.7567215 77.82664037 C-264.73525948 77.80144906 -266.71385252 77.78070219 -268.69244385 77.7601223 C-275.10506373 77.67117572 -281.35241568 77.36656747 -287.71118164 76.52148438 C-287.71118164 76.19148438 -287.71118164 75.86148438 -287.71118164 75.52148438 C-283.09644125 74.61169952 -278.65827004 74.40280187 -273.97290039 74.45898438 C-272.43221094 74.46756604 -270.8915208 74.47602421 -269.35083008 74.484375 C-268.5444812 74.49057861 -267.73813232 74.49678223 -266.90734863 74.50317383 C-253.57958764 74.60045202 -240.28050569 74.50374169 -226.96118164 74.02148438 C-216.16479668 73.63596273 -205.39032026 73.46805365 -194.58618164 73.52148438 C-182.4480453 73.58068964 -170.3315932 73.40217586 -158.19735718 73.09396362 C-136.38713827 72.54146754 -114.58945976 72.43480775 -92.77368164 72.45898438 C-91.99851448 72.45984039 -91.22334732 72.46069641 -90.42469025 72.46157837 C-80.85349354 72.47295446 -71.28234541 72.49385031 -61.71118164 72.52148438 C-61.38118164 67.57148438 -61.05118164 62.62148438 -60.71118164 57.52148438 C-62.73166626 57.5293396 -62.73166626 57.5293396 -64.79296875 57.53735352 C-102.27987435 57.6667007 -139.7656244 57.48523264 -177.25149536 57.20309448 C-182.44473426 57.16426158 -187.63797241 57.13012298 -192.83126831 57.09988403 C-199.03665749 57.06341031 -205.24189913 57.01716017 -211.44716263 56.96348381 C-213.77014361 56.944954 -216.09315411 56.92979871 -218.41617966 56.91812325 C-221.61533456 56.90138016 -224.81415125 56.87242975 -228.01318359 56.84033203 C-228.95860991 56.83817216 -229.90403624 56.83601229 -230.87811184 56.83378696 C-232.17157323 56.81704127 -232.17157323 56.81704127 -233.49116516 56.79995728 C-234.23857625 56.79442652 -234.98598734 56.78889576 -235.75604725 56.7831974 C-237.71118164 56.52148438 -237.71118164 56.52148438 -240.71118164 54.52148438 C-218.41475686 53.60325264 -196.14602894 53.46889594 -173.83256149 53.52667236 C-152.06808911 53.58152436 -130.32264342 53.34985668 -108.5625 52.87915039 C-92.94160182 52.54320826 -77.33587833 52.385326 -61.71118164 52.52148438 C-61.05118164 50.54148437 -60.39118164 48.56148438 -59.71118164 46.52148438 C-60.87692719 46.52639389 -62.04267273 46.53130341 -63.2437439 46.53636169 C-98.78611588 46.6707738 -134.3118987 46.25920043 -169.84823203 45.68726194 C-175.65063395 45.59417622 -181.45310037 45.50581517 -187.2555939 45.41865164 C-193.69916553 45.32177402 -200.14268796 45.22192415 -206.58619308 45.12072563 C-209.25592305 45.07882335 -211.9256622 45.03793904 -214.59541702 44.99760628 C-233.9753911 44.7023295 -253.34060743 44.17716046 -272.71118164 43.52148438 C-272.71118164 43.19148438 -272.71118164 42.86148438 -272.71118164 42.52148438 C-250.20399372 41.7587315 -227.69318955 41.34572114 -205.17602539 41.02148438 C-204.46662072 41.01123859 -203.75721604 41.00099281 -203.02631426 40.99043655 C-192.6529246 40.84081819 -182.27946622 40.69624885 -171.9059906 40.55273438 C-159.32929296 40.3786236 -146.75263147 40.20209196 -134.17602539 40.02148438 C-133.465461 40.01131916 -132.75489661 40.00115395 -132.02279997 39.99068069 C-107.58208172 39.64053267 -83.14596994 39.16811293 -58.71118164 38.52148438 C-57.22618164 34.56148437 -57.22618164 34.56148437 -55.71118164 30.52148438 C-83.08110255 29.7724711 -110.44437887 29.30163997 -137.82314301 29.04916382 C-142.91296328 29.00141545 -148.00274384 28.94974187 -153.0925293 28.8984375 C-164.88215044 28.78017208 -176.67180974 28.66606705 -188.46147919 28.55273438 C-206.50308288 28.37924153 -224.54465994 28.20331847 -242.58618164 28.02148438 C-243.59946156 28.01131916 -244.61274147 28.00115395 -245.65672684 27.99068069 C-276.01279822 27.68548989 -306.36279498 27.29613541 -336.71118164 26.52148438 C-336.71118164 26.19148438 -336.71118164 25.86148438 -336.71118164 25.52148438 C-253.1158014 23.31715271 -253.1158014 23.31715271 -230.14868164 23.45898438 C-203.59031573 23.61695014 -177.03534776 23.28007991 -150.47949219 22.92944336 C-147.51752727 22.89070248 -144.55556063 22.85210087 -141.59359169 22.8136692 C-139.62784901 22.7881519 -137.66210879 22.76244468 -135.69637108 22.73654747 C-123.12686643 22.57331945 -110.56207626 22.50317799 -97.99163246 22.54362297 C-93.43560074 22.55362799 -88.87958059 22.54066161 -84.3235693 22.52586842 C-80.1464672 22.51491916 -75.97192737 22.54184126 -71.79521847 22.59802341 C-68.6681278 22.62867885 -65.54143945 22.60185857 -62.41430664 22.58398438 C-61.31768204 22.61173447 -60.22105743 22.63948456 -59.09120178 22.66807556 C-53.28005777 22.58584551 -53.28005777 22.58584551 -48.529953 19.53425598 C-46.76844857 17.26754006 -45.24821656 14.94268435 -43.71118164 12.52148438 C-41.04321289 10.03320313 -41.04321289 10.03320313 -38.52368164 8.20898438 C-37.29584961 7.28666016 -37.29584961 7.28666016 -36.04321289 6.34570312 C-24.24695702 -0.11250495 -13.19364555 -0.10489558 0 0 Z " fill="#05A1D9" transform="translate(414.711181640625,214.478515625)"/>
<path d="M0 0 C0.96898727 -0.0033284 1.93797455 -0.0066568 2.93632507 -0.01008606 C4.98122688 -0.01513505 7.02613688 -0.01749501 9.07104492 -0.01733398 C12.17836279 -0.0195166 15.28532314 -0.03768344 18.39257812 -0.05664062 C20.38671755 -0.05957585 22.38085864 -0.06155978 24.375 -0.0625 C25.29404617 -0.06968552 26.21309235 -0.07687103 27.1599884 -0.08427429 C40.99832295 -0.03594189 51.54186345 4.21533603 61.6328125 13.78515625 C77.5736481 30.63768609 78.04539366 51.73400826 78.0546875 73.5546875 C78.05790842 75.3429212 78.06127309 77.13115464 78.06477356 78.91938782 C78.07073678 82.65712087 78.07261641 86.39483089 78.07202148 90.13256836 C78.07192013 94.88167506 78.0855578 99.63063139 78.10279369 104.37970257 C78.11400748 108.0715653 78.11593782 111.76339277 78.11541176 115.45527077 C78.11657836 117.20405405 78.12092424 118.95283865 78.12874413 120.70160484 C78.20730102 140.08559505 77.06194981 158.09797292 64.88671875 174.16796875 C63.77296875 175.71484375 63.77296875 175.71484375 62.63671875 177.29296875 C53.37397567 186.9767456 42.88977299 191.18730309 29.68559265 191.6729126 C25.53296435 191.7568407 21.38380479 191.76951601 17.23046875 191.74438477 C13.99767236 191.73040802 10.76771422 191.76481078 7.53515625 191.80273438 C5.46744721 191.80368475 3.39973457 191.80183116 1.33203125 191.796875 C0.37257599 191.81013321 -0.58687927 191.82339142 -1.57540894 191.83705139 C-6.0453454 191.77492804 -9.15649694 191.62029129 -12.72070312 188.75756836 C-15.11328125 186.16796875 -15.11328125 186.16796875 -15.83984375 184.10546875 C-15.58774249 179.29615231 -14.76973073 176.61547826 -11.11328125 173.16796875 C-8.33078402 172.24046967 -6.64292289 172.03913376 -3.76879883 172.02612305 C-2.89391312 172.01908859 -2.0190274 172.01205414 -1.11763 172.00480652 C-0.17389023 172.00064224 0.76984955 171.99647797 1.7421875 171.9921875 C3.7467552 171.96898095 5.75131251 171.94486328 7.75585938 171.91992188 C10.91128402 171.88488066 14.06632873 171.85550241 17.22192383 171.84204102 C20.27081267 171.826494 23.31859405 171.7862334 26.3671875 171.7421875 C27.30080612 171.74409592 28.23442474 171.74600433 29.19633484 171.74797058 C36.30534318 171.61634237 41.57680587 169.94805744 47.05859375 165.34375 C58.33148015 152.03393116 58.20172549 137.27132877 58.1875 120.65234375 C58.19139503 118.74961251 58.19573134 116.84688212 58.20048523 114.94415283 C58.20791925 110.96680883 58.20767724 106.98955364 58.20239258 103.01220703 C58.19660982 97.95128224 58.21351395 92.89072485 58.23673725 87.82986069 C58.2515744 83.9021192 58.25233267 79.97446408 58.24922752 76.04669952 C58.249736 74.18265304 58.25488323 72.3186011 58.26503944 70.45458221 C58.33900075 54.9803467 58.20679334 39.47255826 47.22265625 27.328125 C40.42538937 20.98090547 32.96126795 19.70714447 23.98046875 19.76953125 C23.05633179 19.76666107 22.13219482 19.76379089 21.18005371 19.76083374 C19.23705427 19.7588032 17.29403391 19.76426191 15.35107422 19.77685547 C12.39503813 19.79292353 9.44036911 19.77697218 6.484375 19.7578125 C4.5872366 19.75979511 2.69009904 19.76363916 0.79296875 19.76953125 C-0.08121704 19.76345856 -0.95540283 19.75738586 -1.8560791 19.75112915 C-9.85539156 19.8417803 -16.90393174 21.88341598 -23.11328125 27.16796875 C-32.41781596 38.82858735 -33.55364674 51.13660049 -33.5546875 65.63671875 C-33.56649084 67.08973499 -33.57986215 68.54273924 -33.5947113 69.99572754 C-33.63054627 73.78177003 -33.65100183 77.56770604 -33.66625977 81.35388184 C-33.69130146 87.43997593 -33.73081145 93.52583542 -33.78816032 99.61170959 C-33.80442684 101.72780979 -33.80825874 103.84368403 -33.81117249 105.95983887 C-33.8213591 107.24217407 -33.83154572 108.52450928 -33.84204102 109.84570312 C-33.84631607 110.97310913 -33.85059113 112.10051514 -33.85499573 113.26208496 C-34.11250649 116.15925213 -34.49487766 117.77625968 -36.11328125 120.16796875 C-39.11067066 122.16622836 -39.74675633 122.44347273 -43.11328125 122.41796875 C-43.79390625 122.423125 -44.47453125 122.42828125 -45.17578125 122.43359375 C-47.11328125 122.16796875 -47.11328125 122.16796875 -50.11328125 120.16796875 C-53.27076693 119.81110251 -53.27076693 119.81110251 -56.98657227 119.7890625 C-58.06485574 119.76411461 -58.06485574 119.76411461 -59.16492271 119.73866272 C-61.62807891 119.68457462 -64.0912573 119.64500011 -66.5546875 119.60546875 C-68.35845679 119.56963807 -70.16221325 119.53315654 -71.96595764 119.49609375 C-78.34814276 119.36997111 -84.73064681 119.26832955 -91.11328125 119.16796875 C-92.33141258 119.14841125 -93.54954391 119.12885376 -94.80458832 119.10870361 C-117.73179793 118.74097913 -140.6596726 118.42122542 -163.58764648 118.10546875 C-173.95951527 117.96257649 -184.33134918 117.81746739 -194.703125 117.66796875 C-195.76440337 117.65272093 -195.76440337 117.65272093 -196.84712172 117.63716507 C-217.94179631 117.33315284 -239.03001639 116.94624104 -260.11328125 116.16796875 C-260.11328125 115.83796875 -260.11328125 115.50796875 -260.11328125 115.16796875 C-237.868306 114.47027635 -215.62994744 113.9671285 -193.3758564 113.69564819 C-189.51823973 113.64779471 -185.66067299 113.59619964 -181.80310059 113.54492188 C-170.42880343 113.39437293 -159.05443464 113.24953106 -147.68005371 113.10546875 C-138.7769866 112.99262442 -129.87394526 112.87817924 -120.97095442 112.75945282 C-117.16946467 112.70889658 -113.36796879 112.65957019 -109.56642151 112.61352539 C-91.06835674 112.3890914 -72.59707371 111.95089444 -54.11328125 111.16796875 C-53.78328125 106.87796875 -53.45328125 102.58796875 -53.11328125 98.16796875 C-54.55167579 98.16935144 -54.55167579 98.16935144 -56.0191288 98.17076206 C-79.44347848 98.19304536 -102.86782676 98.20943403 -126.29218483 98.21978092 C-137.62041223 98.22491867 -148.94863259 98.23191286 -160.27685547 98.2434082 C-170.16026133 98.25343256 -180.04366208 98.25984047 -189.92707288 98.26205724 C-195.15138657 98.26335129 -200.37568568 98.26635318 -205.59999466 98.27369881 C-247.42931728 98.33033176 -247.42931728 98.33033176 -265.11328125 97.16796875 C-261.8258447 95.22339996 -259.25441797 94.87238706 -255.45874023 94.75170898 C-254.30978775 94.71263931 -253.16083527 94.67356964 -251.97706604 94.63331604 C-250.721353 94.60221237 -249.46563995 94.5711087 -248.171875 94.5390625 C-246.82994921 94.50058508 -245.48802522 94.46204492 -244.14610291 94.42344666 C-229.99600573 94.04588121 -215.84574521 94.1216034 -201.692276 94.19414711 C-166.61090744 94.37355413 -131.560909 93.9569081 -96.48828125 93.16796875 C-94.88658018 93.13199522 -94.88658018 93.13199522 -93.25252151 93.09529495 C-80.20574232 92.80107811 -67.15934733 92.49223385 -54.11328125 92.16796875 C-54.11328125 91.50796875 -54.11328125 90.84796875 -54.11328125 90.16796875 C-63.46477322 89.2141837 -72.78890234 88.92458533 -82.17889404 88.72213745 C-95.83716821 88.42582812 -109.47845061 88.05555468 -123.11328125 87.16796875 C-123.11328125 86.83796875 -123.11328125 86.50796875 -123.11328125 86.16796875 C-100.34328125 85.83796875 -77.57328125 85.50796875 -54.11328125 85.16796875 C-53.78328125 79.22796875 -53.45328125 73.28796875 -53.11328125 67.16796875 C-112.51328125 66.17796875 -171.91328125 65.18796875 -233.11328125 64.16796875 C-233.11328125 63.50796875 -233.11328125 62.84796875 -233.11328125 62.16796875 C-173.71328125 61.17796875 -114.31328125 60.18796875 -53.11328125 59.16796875 C-53.11328125 56.19796875 -53.11328125 53.22796875 -53.11328125 50.16796875 C-51.27139021 33.69620026 -44.5323779 19.7103337 -31.59765625 9.10546875 C-21.62971796 1.76710928 -12.16324162 0.01463114 0 0 Z " fill="#03A1DB" transform="translate(407.11328125,93.83203125)"/>
<path d="M0 0 C2.08984375 0.421875 2.08984375 0.421875 4.58984375 2.109375 C7.21198141 6.15183723 7.21663802 10.35625234 7.23510742 15.07568359 C7.24148727 16.18809418 7.24786713 17.30050476 7.25444031 18.44662476 C7.25555313 19.64244171 7.25666595 20.83825867 7.2578125 22.0703125 C7.2628051 23.93739365 7.2628051 23.93739365 7.26789856 25.8421936 C7.27296075 28.47995572 7.27574 31.11761485 7.27514648 33.75537109 C7.275026 37.74714797 7.29543547 41.73873725 7.31445312 45.73046875 C7.36752688 69.30547921 6.98548298 91.16109514 -9.8671875 109.5390625 C-20.915553 119.72130374 -33.35988533 122.56964761 -47.95703125 122.58984375 C-49.23480438 122.59483635 -49.23480438 122.59483635 -50.53839111 122.59992981 C-52.33353134 122.60496957 -54.12868084 122.60733905 -55.92382812 122.60717773 C-58.63818203 122.60935735 -61.35212442 122.62752577 -64.06640625 122.64648438 C-79.67538423 122.69950748 -91.68250407 121.43962873 -104.59765625 111.859375 C-106.91015625 109.421875 -106.91015625 109.421875 -107.28515625 106.609375 C-107.16140625 105.8875 -107.03765625 105.165625 -106.91015625 104.421875 C-105.30140625 104.0196875 -105.30140625 104.0196875 -103.66015625 103.609375 C-100.2625273 102.53345917 -98.61729425 101.56891548 -95.91015625 99.421875 C-92.30323944 98.00678632 -90.48164961 98.82297117 -87.01171875 100.328125 C-78.55845364 103.3040848 -70.05904612 103.02172513 -61.18261719 102.94335938 C-58.28365943 102.9218639 -55.3871651 102.94326961 -52.48828125 102.96875 C-37.52224538 103.01439921 -37.52224538 103.01439921 -24.359375 96.484375 C-16.04398951 86.74928955 -12.78942603 76.46998707 -12.78417969 63.73974609 C-12.78037292 62.45506439 -12.77656616 61.17038269 -12.77264404 59.84677124 C-12.77235325 58.83206316 -12.77235325 58.83206316 -12.77205658 57.79685593 C-12.76770987 54.17958381 -12.73662701 50.56248437 -12.7109375 46.9453125 C-12.68054433 42.35866794 -12.65784469 37.77230178 -12.65966797 33.18554688 C-12.66045545 29.46185758 -12.63709181 25.73899523 -12.59778595 22.015522 C-12.58734269 20.60182031 -12.5857897 19.18802302 -12.59343719 17.77430344 C-12.60307034 15.79791969 -12.57908752 13.82145915 -12.55371094 11.84521484 C-12.55006531 10.72271332 -12.54641968 9.60021179 -12.54266357 8.44369507 C-11.09104405 1.50854532 -6.39295147 -0.38293886 0 0 Z " fill="#04A1DA" transform="translate(477.91015625,283.578125)"/>
<path d="M0 0 C2.12507534 0.08631134 2.12507534 0.08631134 3.93757534 1.27381134 C5.58198815 3.78370457 5.71261014 5.14863733 5.12507534 8.08631134 C0.9804403 11.45434101 -2.88769994 11.45287797 -7.99675083 11.27503204 C-8.81161551 11.25913308 -9.6264802 11.24323412 -10.46603775 11.22685337 C-13.20053037 11.16986344 -15.93394635 11.09080544 -18.66789341 11.01209259 C-20.63588908 10.9670193 -22.60391868 10.92340708 -24.57197666 10.88114166 C-28.82740582 10.78693949 -33.08245815 10.6832152 -37.33747959 10.57212067 C-44.12267029 10.39517457 -50.90822994 10.23871491 -57.69401646 10.08655548 C-60.03723309 10.03383674 -62.38044903 9.98108678 -64.72366428 9.92830658 C-65.90119707 9.90179834 -67.07872986 9.87529011 -68.29194546 9.84797859 C-71.93903334 9.76507432 -75.58606691 9.68006097 -79.23309422 9.59453583 C-97.10494574 9.17765948 -114.9773485 8.83393666 -132.85148716 8.53162384 C-134.12519735 8.51000624 -135.39890755 8.48838863 -136.71121502 8.46611595 C-146.75786877 8.29601557 -156.80457688 8.12923041 -166.85130024 7.9632988 C-175.00114794 7.82854925 -183.15095775 7.69180434 -191.30070591 7.55115509 C-192.38677568 7.53241899 -193.47284546 7.5136829 -194.59182644 7.49437904 C-212.69160851 7.17812637 -230.78347226 6.72081428 -248.87492466 6.08631134 C-248.87492466 5.75631134 -248.87492466 5.42631134 -248.87492466 5.08631134 C-225.5565398 4.30520893 -202.24046736 3.79394524 -178.91245437 3.41206169 C-174.27748229 3.33560435 -169.642559 3.25629229 -165.00763035 3.17725372 C-154.26444307 2.99448413 -143.52120346 2.81492224 -132.77795506 2.63578796 C-119.13161802 2.40811379 -105.48530607 2.17899149 -91.83904463 1.94682837 C-87.27083574 1.86919865 -82.70261796 1.79223704 -78.13436794 1.7170639 C-57.24357667 1.37325418 -36.35685024 0.95571729 -15.47037506 0.40533447 C-14.66110136 0.38414645 -13.85182767 0.36295843 -13.01803052 0.34112835 C-11.51332339 0.30154879 -10.00863211 0.26135939 -8.50396121 0.22042561 C-5.66924767 0.1455408 -2.83445257 0.08509628 0 0 Z " fill="#1F97C4" transform="translate(344.874924659729,166.91368865966797)"/>
<path d="M0 0 C8.79701169 -0.02317215 17.59401288 -0.04093997 26.39104843 -0.05181217 C30.47587919 -0.05703032 34.56068907 -0.06410861 38.64550781 -0.07543945 C42.58771215 -0.08630624 46.5298964 -0.09228489 50.47211456 -0.09487724 C51.9759986 -0.09672464 53.47988154 -0.10033213 54.98375702 -0.10573006 C57.09043248 -0.11299078 59.19702497 -0.11398881 61.30371094 -0.11352539 C63.10240631 -0.11685631 63.10240631 -0.11685631 64.93743896 -0.12025452 C67.49366028 -0.01988193 69.57301445 0.24357499 72 1 C72.12375 2.051875 72.2475 3.10375 72.375 4.1875 C72.91140782 7.45958771 73.63880035 10.00536076 75 13 C74.51917969 13.39832031 74.03835938 13.79664063 73.54296875 14.20703125 C71.62608175 16.43450247 71.52258357 17.78834669 71.3125 20.6875 C71.21388672 21.89986328 71.21388672 21.89986328 71.11328125 23.13671875 C71.07589844 23.75160156 71.03851563 24.36648437 71 25 C70.67 25 70.34 25 70 25 C70 20.71 70 16.42 70 12 C68.56160546 12.00138269 68.56160546 12.00138269 67.09415245 12.00279331 C43.66980277 12.02507661 20.24545449 12.04146528 -3.17890358 12.05181217 C-14.50713098 12.05694992 -25.83535134 12.06394411 -37.16357422 12.07543945 C-47.04698008 12.08546381 -56.93038083 12.09187172 -66.81379163 12.09408849 C-72.03810532 12.09538254 -77.26240443 12.09838443 -82.48671341 12.10573006 C-124.31603603 12.16236301 -124.31603603 12.16236301 -142 11 C-138.71256345 9.05543121 -136.14113672 8.70441831 -132.34545898 8.58374023 C-131.1965065 8.54467056 -130.04755402 8.50560089 -128.86378479 8.46534729 C-127.60807175 8.43424362 -126.3523587 8.40313995 -125.05859375 8.37109375 C-123.71666796 8.33261633 -122.37474397 8.29407617 -121.03282166 8.25547791 C-106.88272448 7.87791246 -92.73246396 7.95363465 -78.57899475 8.02617836 C-43.49762619 8.20558538 -8.44762775 7.78893935 26.625 7 C28.22670107 6.96402647 28.22670107 6.96402647 29.86075974 6.9273262 C42.90753893 6.63310936 55.95393392 6.3242651 69 6 C69 5.34 69 4.68 69 4 C59.64850803 3.04621495 50.32437891 2.75661658 40.93438721 2.5541687 C27.27611304 2.25785937 13.63483064 1.88758593 0 1 C0 0.67 0 0.34 0 0 Z " fill="#0DAAD7" transform="translate(284,180)"/>
<path d="M0 0 C0.33 0.66 0.66 1.32 1 2 C0.67 2.99 0.34 3.98 0 5 C-55.4723589 5.12092351 -110.94081374 5.03417558 -166.41158342 4.61044246 C-171.30986045 4.57308505 -176.20814867 4.5376385 -181.10644531 4.50296021 C-187.79035576 4.45544216 -194.47421085 4.40290621 -201.15805817 4.34712219 C-203.60575651 4.32714689 -206.05346481 4.30834529 -208.50118256 4.29090881 C-225.68315037 4.16623772 -242.83196565 3.69595695 -260 3 C-260 2.67 -260 2.34 -260 2 C-258.86362595 1.98969254 -257.72725189 1.97938507 -256.55644226 1.96876526 C-243.13022479 1.84673364 -229.70403217 1.72211237 -216.2778511 1.59614182 C-212.68872443 1.56251147 -209.09959601 1.52907281 -205.51046753 1.49563599 C-170.37555533 1.16935455 -170.37555533 1.16935455 -135.2421875 0.7109375 C-134.07354723 0.69349928 -134.07354723 0.69349928 -132.88129807 0.67570877 C-129.0808733 0.61889229 -125.28045645 0.56155837 -121.4800415 0.50408936 C-80.98657805 -0.10689096 -40.49729868 -0.10601953 0 0 Z " fill="#2F8AAA" transform="translate(368,223)"/>
<path d="M0 0 C4.78199803 0.01047297 9.56400196 0.01484737 14.3460083 0.01983643 C23.62727295 0.03036754 32.9085127 0.04729215 42.1897583 0.06866455 C42.1897583 0.39866455 42.1897583 0.72866455 42.1897583 1.06866455 C20.0797583 1.72866455 -2.0302417 2.38866455 -24.8102417 3.06866455 C-24.8102417 3.72866455 -24.8102417 4.38866455 -24.8102417 5.06866455 C-3.0302417 5.06866455 18.7497583 5.06866455 41.1897583 5.06866455 C41.1897583 6.05866455 41.1897583 7.04866455 41.1897583 8.06866455 C23.39721301 7.82525853 5.60466895 7.58176264 -12.18787384 7.33817387 C-19.65809145 7.23590455 -27.12830917 7.1336429 -34.59852791 7.03145635 C-36.19909735 7.00956134 -37.79966676 6.98766378 -39.40023613 6.96576369 C-43.39738791 6.91107222 -47.39454011 6.85641108 -51.39169312 6.80180931 C-59.43047359 6.69194274 -67.46924319 6.58135363 -75.50799561 6.4694519 C-78.74415996 6.42448734 -81.98032543 6.37960419 -85.2164917 6.33477783 C-86.01648464 6.32368901 -86.81647758 6.3126002 -87.64071274 6.30117536 C-98.51694455 6.15079085 -109.39326188 6.01010231 -120.26972198 5.87727833 C-126.13773136 5.80556499 -132.00570344 5.73099297 -137.87366819 5.65572518 C-142.61514965 5.59516423 -147.35665618 5.53838898 -152.09821796 5.48450708 C-155.0174442 5.45040614 -157.93661432 5.4126184 -160.85578156 5.37382054 C-162.83431954 5.34862924 -164.81291258 5.32788237 -166.79150391 5.30730247 C-173.20412379 5.2183559 -179.45147574 4.91374765 -185.8102417 4.06866455 C-185.8102417 3.73866455 -185.8102417 3.40866455 -185.8102417 3.06866455 C-181.19550131 2.1588797 -176.7573301 1.94998205 -172.07196045 2.00616455 C-170.531271 2.01474621 -168.99058086 2.02320439 -167.44989014 2.03155518 C-166.64354126 2.03775879 -165.83719238 2.0439624 -165.00640869 2.050354 C-151.67869599 2.14763184 -138.37951001 2.05177832 -125.0602417 1.56866455 C-112.76954143 1.12694493 -100.50617922 0.98124898 -88.20770264 1.10577393 C-80.03010012 1.16041738 -71.87696669 0.98844386 -63.70375061 0.71391296 C-42.46614137 0.00138205 -21.24796966 -0.05170956 0 0 Z " fill="#1AA0CD" transform="translate(312.81024169921875,286.93133544921875)"/>
<path d="M0 0 C0.33 0.99 0.66 1.98 1 3 C0.67 3.66 0.34 4.32 0 5 C-43.98874165 5.15335327 -87.97442449 4.94984648 -131.96178991 4.61044246 C-136.82203999 4.5730498 -141.68230162 4.5376001 -146.54257202 4.50296021 C-153.2274888 4.45517195 -159.91235394 4.40261763 -166.59721184 4.34712219 C-169.06737227 4.32712086 -171.53754282 4.30832146 -174.00772285 4.29090881 C-191.68845739 4.16430355 -209.33298045 3.68933834 -227 3 C-227 2.67 -227 2.34 -227 2 C-214.4681932 1.04576367 -202.01197855 0.91146718 -189.44812012 0.98168945 C-183.05268041 1.01504652 -176.65723346 1.02661702 -170.26171875 1.03125 C-169.54676365 1.03179886 -168.83180855 1.03234772 -168.09518814 1.03291321 C-141.51908089 1.04368857 -114.94309738 0.68500612 -88.36900234 0.39115906 C-83.00122629 0.33210757 -77.63343312 0.27480788 -72.265625 0.21875 C-71.22291506 0.20784332 -70.18020512 0.19693665 -69.1058979 0.18569946 C-46.07062069 -0.04962904 -23.0362089 -0.05220625 0 0 Z " fill="#179CCC" transform="translate(330,317)"/>
<path d="M0 0 C-0.33 0.66 -0.66 1.32 -1 2 C-9.25 2 -17.5 2 -26 2 C-26.33 2.99 -26.66 3.98 -27 5 C-13.635 5.495 -13.635 5.495 0 6 C0.66 4.68 1.32 3.36 2 2 C4 5 4 5 3.625 7.6875 C3.41875 8.450625 3.2125 9.21375 3 10 C2.34 10 1.68 10 1 10 C1 15.28 1 20.56 1 26 C0.67 26 0.34 26 0 26 C0 20.06 0 14.12 0 8 C-59.4 7.01 -118.8 6.02 -180 5 C-180 4.34 -180 3.68 -180 3 C-157.26919592 2.60832752 -134.53838347 2.21714455 -111.80756092 1.82654572 C-101.25345782 1.6451761 -90.69935752 1.46364579 -80.14526367 1.28173828 C-70.94725116 1.12320423 -61.74923354 0.96497055 -52.55120963 0.80709887 C-47.68011485 0.72348256 -42.80902277 0.63971496 -37.93793678 0.55558777 C-33.3538945 0.47642277 -28.7698455 0.39765916 -24.18579102 0.31920433 C-22.50276624 0.29032888 -20.81974399 0.26130637 -19.13672447 0.23212624 C-16.83947269 0.19231852 -14.54221245 0.15303922 -12.24494934 0.1138916 C-10.31609752 0.08070705 -10.31609752 0.08070705 -8.348279 0.04685211 C-5.56481154 0.00790335 -2.78365253 -0.00967895 0 0 Z " fill="#1593C1" transform="translate(354,153)"/>
<path d="M0 0 C0 0.99 0 1.98 0 3 C-2 5 -2 5 -4.72813416 5.20927429 C-6.49840721 5.18048943 -6.49840721 5.18048943 -8.30444336 5.15112305 C-8.96609088 5.143248 -9.6277384 5.13537294 -10.30943584 5.12725925 C-12.56980534 5.09809444 -14.8296951 5.0545681 -17.08984375 5.01171875 C-18.748226 4.98813872 -20.40662347 4.96561015 -22.06503296 4.94403076 C-25.72856355 4.89479333 -29.39194623 4.83974352 -33.05532837 4.78048706 C-42.25976857 4.63261874 -51.46464371 4.51752861 -60.6695385 4.402071 C-62.96128686 4.37329858 -65.25303105 4.34419186 -67.54477119 4.31477165 C-102.68642074 3.86635195 -137.83044375 3.68324662 -172.97414017 3.47000504 C-178.33203676 3.43745843 -183.6899293 3.40427584 -189.04782104 3.37094116 C-209.36519816 3.24459057 -229.68258774 3.12057474 -250 3 C-250 2.67 -250 2.34 -250 2 C-166.68150186 0.03428517 -83.33735913 -0.17876942 0 0 Z " fill="#209AB4" transform="translate(254,195)"/>
<path d="M0 0 C-0.33 0.66 -0.66 1.32 -1 2 C-65.845 2.495 -65.845 2.495 -132 3 C-126.8167704 3.87064258 -126.8167704 3.87064258 -121.70986938 4.15821838 C-120.91069092 4.1680072 -120.11151245 4.17779602 -119.28811646 4.18788147 C-118.00201981 4.19651466 -118.00201981 4.19651466 -116.68994141 4.20532227 C-115.31337372 4.22017166 -115.31337372 4.22017166 -113.90899658 4.23532104 C-110.88987771 4.26678959 -107.87074313 4.29163534 -104.8515625 4.31640625 C-102.75263064 4.33698843 -100.6537028 4.35798523 -98.55477905 4.37937927 C-93.04094716 4.43446936 -87.52707867 4.48393608 -82.01318359 4.53222656 C-76.382454 4.58253716 -70.7517773 4.63817326 -65.12109375 4.69335938 C-54.08077439 4.8007811 -43.04040903 4.90226135 -32 5 C-32 5.33 -32 5.66 -32 6 C-110.67250865 6.17459289 -189.34731056 5.95547097 -268 4 C-268 3.67 -268 3.34 -268 3 C-184.24381941 0.79142818 -184.24381941 0.79142818 -158.99795532 0.953125 C-137.86797097 1.08494764 -116.74370033 0.7909322 -95.61559296 0.53668213 C-63.74230401 0.15373274 -31.87614526 -0.17623113 0 0 Z " fill="#2196BF" transform="translate(346,237)"/>
<path d="M0 0 C1.16760361 -0.00388229 1.16760361 -0.00388229 2.35879517 -0.00784302 C4.45799851 -0.01350447 6.55704703 -0.01227045 8.65625 -0.0078125 C10.33944336 -0.00612061 10.33944336 -0.00612061 12.05664062 -0.00439453 C14.5 0.125 14.5 0.125 15.5 1.125 C17.06172745 1.21185603 18.62729344 1.23202219 20.19140625 1.22265625 C21.60776367 1.21782227 21.60776367 1.21782227 23.05273438 1.21289062 C24.54256836 1.20032227 24.54256836 1.20032227 26.0625 1.1875 C27.05958984 1.18298828 28.05667969 1.17847656 29.08398438 1.17382812 C31.55604849 1.16200007 34.02799518 1.14551849 36.5 1.125 C36.5 1.455 36.5 1.785 36.5 2.125 C34.85 2.455 33.2 2.785 31.5 3.125 C54.765 3.62 54.765 3.62 78.5 4.125 C78.5 4.785 78.5 5.445 78.5 6.125 C44.44189225 6.3136731 10.39551761 5.81451098 -23.65725577 5.29077756 C-28.94114746 5.20974642 -34.22507569 5.13154368 -39.5090332 5.05493164 C-104.34220541 4.11441334 -104.34220541 4.11441334 -131.5 3.125 C-131.5 2.795 -131.5 2.465 -131.5 2.125 C-108.50776606 1.40234701 -85.52022307 0.88594314 -62.51858521 0.59236908 C-60.14551985 0.56196209 -57.77246649 0.53072723 -55.39941406 0.49932861 C-36.93358126 0.25630895 -18.46762139 0.02844246 0 0 Z " fill="#179ECE" transform="translate(278.5,206.875)"/>
<path d="M0 0 C0 0.66 0 1.32 0 2 C-12.54 2.33 -25.08 2.66 -38 3 C-0.38 3.33 37.24 3.66 76 4 C76 4.66 76 5.32 76 6 C39.63713567 6.1571819 3.29175552 5.7499949 -33.06502378 5.16577756 C-38.87365238 5.07273693 -44.68234471 4.98436103 -50.49106365 4.89716727 C-56.93943855 4.8002858 -63.3877643 4.7004316 -69.83607292 4.59924126 C-72.50859391 4.55733196 -75.1811241 4.51644945 -77.85367012 4.4761219 C-97.24385225 4.18107126 -116.61923489 3.65616979 -136 3 C-136 2.67 -136 2.34 -136 2 C-90.70968592 0.47660743 -45.31636314 -0.34678168 0 0 Z " fill="#2696BC" transform="translate(278,255)"/>
<path d="M0 0 C25.41 0 50.82 0 77 0 C76.34 0.66 75.68 1.32 75 2 C75.99 2.66 76.98 3.32 78 4 C78 4.66 78 5.32 78 6 C78.66 6 79.32 6 80 6 C80 7.65 80 9.3 80 11 C79.01 11.33 78.02 11.66 77 12 C76.02391783 9.07175348 75.91773332 7.04386724 76 4 C75.12285985 4.00276538 75.12285985 4.00276538 74.22799969 4.00558662 C60.00673892 4.04973411 45.78548841 4.08284119 31.5641737 4.10362434 C24.6868818 4.11394178 17.80963561 4.128011 10.93237305 4.15087891 C4.29937655 4.1729241 -2.33358482 4.1845585 -8.96661949 4.18975449 C-11.50124549 4.19345888 -14.03586879 4.2006923 -16.57047462 4.21146011 C-20.11190099 4.22591113 -23.65312912 4.22798061 -27.19458008 4.22705078 C-28.77737762 4.23783661 -28.77737762 4.23783661 -30.39215088 4.24884033 C-31.35548843 4.246091 -32.31882599 4.24334167 -33.31135559 4.24050903 C-34.56822032 4.24327441 -34.56822032 4.24327441 -35.85047626 4.24609566 C-38 4 -38 4 -41 2 C-27.47 2 -13.94 2 0 2 C0 1.34 0 0.68 0 0 Z " fill="#04A1D9" transform="translate(278,255)"/>
<path d="M0 0 C0 0.33 0 0.66 0 1 C-5.94 1.33 -11.88 1.66 -18 2 C12.195 2.495 12.195 2.495 43 3 C43 3.33 43 3.66 43 4 C22.88294109 4.02351838 2.76588503 4.04107109 -17.35118484 4.05181217 C-26.69506545 4.05693535 -36.03893743 4.06390073 -45.3828125 4.07543945 C-53.54131348 4.08550943 -61.69980821 4.09188222 -69.85831523 4.09408849 C-74.16508557 4.09537504 -78.47183807 4.09832662 -82.7786026 4.10573006 C-102.87871846 4.13898075 -122.9173442 3.91607512 -143 3 C-143 2.34 -143 1.68 -143 1 C-130.70428815 0.86689814 -118.40855139 0.73639274 -106.11278057 0.60884857 C-100.39800898 0.54949513 -94.68324797 0.48937761 -88.96850586 0.42724609 C-59.31117154 0.10547992 -29.65911747 -0.07564135 0 0 Z " fill="#2591B9" transform="translate(240,305)"/>
<path d="M0 0 C1.7697821 -0.00401825 1.7697821 -0.00401825 3.57531738 -0.00811768 C19.97033406 -0.03626631 36.31132054 0.33235009 52.6875 1.125 C52.6875 1.455 52.6875 1.785 52.6875 2.125 C63.9075 2.455 75.1275 2.785 86.6875 3.125 C86.6875 3.455 86.6875 3.785 86.6875 4.125 C70.50871459 4.14851379 54.32993484 4.16606889 38.1511364 4.17681217 C30.63655903 4.18193631 23.12199236 4.18890358 15.60742188 4.20043945 C9.0464919 4.21050643 2.48556968 4.21688154 -4.07536781 4.21908849 C-7.53910719 4.22037553 -11.00282439 4.22333043 -14.46655655 4.23073006 C-30.44693566 4.26103253 -46.35634677 4.03866158 -62.3125 3.125 C-59.1398639 1.44880469 -56.93367347 0.83975427 -53.328125 0.7109375 C-52.27584717 0.67210449 -51.22356934 0.63327148 -50.1394043 0.59326172 C-48.36883667 0.54709717 -48.36883667 0.54709717 -46.5625 0.5 C-45.29768799 0.46277832 -44.03287598 0.42555664 -42.72973633 0.38720703 C-28.49034709 0.01158388 -14.24332901 0.01815969 0 0 Z " fill="#11BEDC" transform="translate(204.3125,187.875)"/>
<path d="M0 0 C0 0.66 0 1.32 0 2 C-8.60545833 4.46559512 -17.09628692 4.27321554 -25.9609375 4.23046875 C-27.59998539 4.22927474 -29.23903397 4.22882425 -30.87808228 4.2290802 C-34.2955561 4.22752376 -37.71292391 4.21929474 -41.13037109 4.20581055 C-45.51184592 4.18874093 -49.8932055 4.184999 -54.2747097 4.18575573 C-57.65126648 4.18548412 -61.02779806 4.18000563 -64.40434647 4.17275429 C-66.02069534 4.1695732 -67.63704706 4.16760152 -69.2533989 4.16686058 C-71.50540822 4.16469565 -73.75729443 4.15595047 -76.00927734 4.14526367 C-77.9304689 4.13954597 -77.9304689 4.13954597 -79.89047241 4.13371277 C-83 4 -83 4 -86 3 C-87.33363703 2.85596652 -88.67218046 2.75409577 -90.01171875 2.68359375 C-91.14770508 2.62075195 -91.14770508 2.62075195 -92.30664062 2.55664062 C-93.48516602 2.49766602 -93.48516602 2.49766602 -94.6875 2.4375 C-95.48478516 2.39431641 -96.28207031 2.35113281 -97.10351562 2.30664062 C-99.06881447 2.20072632 -101.03438496 2.09987449 -103 2 C-102.67 1.34 -102.34 0.68 -102 0 C-91.68071457 -0.13142491 -81.36141741 -0.26188406 -71.04210472 -0.39115143 C-66.24909245 -0.45122172 -61.45608464 -0.51160954 -56.66308594 -0.57275391 C-52.02707479 -0.63188338 -47.39105336 -0.69013845 -42.75502396 -0.74781799 C-40.99704226 -0.76983783 -39.2390643 -0.79215891 -37.48109055 -0.81480408 C-6.37759247 -1.21477952 -6.37759247 -1.21477952 0 0 Z " fill="#04A0DB" transform="translate(295,171)"/>
<path d="M0 0 C1.18637306 -0.00021904 1.18637306 -0.00021904 2.39671326 -0.0004425 C4.99383347 0.0002505 7.5908807 0.0080141 10.18798828 0.01586914 C11.99545248 0.0177355 13.80291719 0.01915837 15.61038208 0.02015686 C20.35487274 0.0239649 25.09933253 0.03378051 29.84381104 0.04486084 C34.69030337 0.05511184 39.53680072 0.05966237 44.38330078 0.06469727 C53.88331431 0.07540437 63.38330497 0.09246015 72.88330078 0.11352539 C73.37830078 1.10352539 73.37830078 1.10352539 73.88330078 2.11352539 C73.55330078 3.10352539 73.22330078 4.09352539 72.88330078 5.11352539 C38.53429727 5.24448111 4.22147113 5.00561079 -30.11669922 4.11352539 C-30.44669922 3.45352539 -30.77669922 2.79352539 -31.11669922 2.11352539 C-29.95912109 2.05293945 -28.80154297 1.99235352 -27.60888672 1.92993164 C-26.06981465 1.84547037 -24.53075267 1.76082521 -22.99169922 1.67602539 C-22.23115234 1.63670898 -21.47060547 1.59739258 -20.68701172 1.55688477 C-19.93935547 1.51499023 -19.19169922 1.4730957 -18.42138672 1.42993164 C-17.74060059 1.39327393 -17.05981445 1.35661621 -16.35839844 1.31884766 C-14.04018185 1.14354488 -14.04018185 1.14354488 -11.48388672 0.60778809 C-7.63645078 0.04303069 -3.87751246 -0.01894537 0 0 Z " fill="#08A6DA" transform="translate(295.11669921875,222.886474609375)"/>
<path d="M0 0 C1.39931763 -0.00388229 1.39931763 -0.00388229 2.8269043 -0.00784302 C12.80204537 -0.02969136 22.76350496 0.08165252 32.73046875 0.5078125 C33.55887772 0.53817596 34.38728668 0.56853943 35.24079895 0.599823 C36.40200508 0.65699997 36.40200508 0.65699997 37.58666992 0.71533203 C38.59717659 0.76126999 38.59717659 0.76126999 39.62809753 0.80813599 C41.6875 1.125 41.6875 1.125 44.08229065 2.13166809 C47.04004173 3.2594195 49.31240105 3.39536478 52.47167969 3.42797852 C53.6092572 3.44462051 54.74683472 3.46126251 55.91888428 3.47840881 C57.74567719 3.49103004 57.74567719 3.49103004 59.609375 3.50390625 C60.86510315 3.52090073 62.1208313 3.5378952 63.41461182 3.55540466 C66.74159492 3.59949388 70.06845898 3.63583491 73.39556885 3.66760254 C78.09823124 3.71342732 82.8007484 3.76913333 87.50323486 3.83030701 C90.00606137 3.86237 92.50896071 3.88922651 95.01190186 3.91053772 C96.13687073 3.92402756 97.2618396 3.9375174 98.42089844 3.95141602 C99.41619568 3.96092789 100.41149292 3.97043976 101.43695068 3.98023987 C103.6875 4.125 103.6875 4.125 104.6875 5.125 C104.82865161 7.79558851 104.72997107 10.44932238 104.6875 13.125 C104.3575 13.125 104.0275 13.125 103.6875 13.125 C103.3575 10.815 103.0275 8.505 102.6875 6.125 C87.68052719 5.86028522 72.67349098 5.59939433 57.66637897 5.34269714 C50.69365192 5.22334522 43.7209482 5.10286414 36.74829102 4.97949219 C28.68251374 4.8369112 20.61667796 4.6981733 12.55078125 4.5625 C10.585557 4.52928146 10.585557 4.52928146 8.58063126 4.49539185 C-8.85216375 4.20532561 -26.2791583 4.01074813 -43.71427917 4.16186523 C-44.39805571 4.16613022 -45.08183224 4.1703952 -45.78632927 4.17478943 C-47.56098104 4.18641966 -49.33558958 4.20422198 -51.11018372 4.22265625 C-54.5720171 4.1170859 -57.89518623 3.67393949 -61.3125 3.125 C-61.3125 2.795 -61.3125 2.465 -61.3125 2.125 C-55.04353607 0.70306134 -48.71298091 0.74391624 -42.3125 0.5625 C-41.25804184 0.53123016 -41.25804184 0.53123016 -40.18228149 0.49932861 C-26.78954419 0.11240949 -13.39775504 0.01693615 0 0 Z " fill="#2399C4" transform="translate(250.3125,340.875)"/>
<path d="M0 0 C1.8125 1.1875 1.8125 1.1875 3 3 C3.5 5.5 3.5 5.5 3 8 C-0.8633845 11.34046175 -4.16185216 11.2524292 -8.99804688 10.95703125 C-9.84431641 10.88871094 -10.69058594 10.82039062 -11.5625 10.75 C-12.83770508 10.67072266 -12.83770508 10.67072266 -14.13867188 10.58984375 C-20.34606977 10.17114868 -20.34606977 10.17114868 -22.95239258 9.48901367 C-25.3795464 8.90935598 -27.63870536 8.82111273 -30.1328125 8.75390625 C-31.10347656 8.72103516 -32.07414062 8.68816406 -33.07421875 8.65429688 C-35.11576511 8.5928675 -37.15744097 8.53560668 -39.19921875 8.48242188 C-40.65134766 8.43118164 -40.65134766 8.43118164 -42.1328125 8.37890625 C-43.01855957 8.3538501 -43.90430664 8.32879395 -44.81689453 8.30297852 C-47.47374763 7.93425175 -48.1643332 6.8356668 -50 5 C-49.67 4.34 -49.34 3.68 -49 3 C-46.7890625 2.62109375 -46.7890625 2.62109375 -43.625 2.4375 C-42.38363281 2.36402344 -41.14226562 2.29054687 -39.86328125 2.21484375 C-35.96588677 2.03046734 -32.06729054 1.89090224 -28.16796875 1.75390625 C-26.95995605 1.71144775 -25.75194336 1.66898926 -24.50732422 1.62524414 C-22.05730637 1.54219543 -19.60710083 1.46449973 -17.15673828 1.39233398 C-16.01833496 1.35567627 -14.87993164 1.31901855 -13.70703125 1.28125 C-12.16752808 1.23581055 -12.16752808 1.23581055 -10.59692383 1.18945312 C-6.83077968 0.91470199 -3.8506201 -0.38506201 0 0 Z " fill="#04A3DA" transform="translate(347,167)"/>
<path d="M0 0 C0 0.33 0 0.66 0 1 C-0.90415901 1.01213028 -0.90415901 1.01213028 -1.82658386 1.02450562 C-8.10473599 1.11061553 -14.38257473 1.21012215 -20.66040039 1.31738281 C-23.00279473 1.35564716 -25.34524733 1.39050446 -27.68774414 1.421875 C-31.056364 1.46758025 -34.42458373 1.52556661 -37.79296875 1.5859375 C-38.83897751 1.59748871 -39.88498627 1.60903992 -40.96269226 1.62094116 C-41.94333145 1.64081085 -42.92397064 1.66068054 -43.93432617 1.68115234 C-44.79370285 1.69447601 -45.65307953 1.70779968 -46.53849792 1.7215271 C-49.50850074 1.94755975 -49.50850074 1.94755975 -54 4 C-22.32 4.495 -22.32 4.495 10 5 C10 5.33 10 5.66 10 6 C1.18571757 6.02315665 -7.62855441 6.04093208 -16.4428606 6.05181217 C-20.53556708 6.05703371 -24.62825276 6.06411817 -28.72094727 6.07543945 C-32.66963086 6.08629418 -36.61829444 6.09228234 -40.56699181 6.09487724 C-42.07449344 6.09672682 -43.58199395 6.1003385 -45.08948708 6.10573006 C-47.19876103 6.11297477 -49.30795196 6.11398949 -51.41723633 6.11352539 C-52.61858719 6.115746 -53.81993805 6.11796661 -55.05769348 6.12025452 C-58 6 -58 6 -61 5 C-63.06966464 4.88265016 -65.14278334 4.82318373 -67.21557617 4.79467773 C-68.4966777 4.77473251 -69.77777924 4.75478729 -71.09770203 4.73423767 C-72.49612304 4.7172546 -73.89454531 4.70037575 -75.29296875 4.68359375 C-76.7235829 4.66301834 -78.15419105 4.64202171 -79.58479309 4.62062073 C-83.34780006 4.56546067 -87.11086135 4.51602471 -90.8739624 4.46777344 C-94.71485216 4.41751407 -98.55566316 4.36185117 -102.39648438 4.30664062 C-109.93092287 4.19913327 -117.46542691 4.09767189 -125 4 C-121.38854852 1.59236568 -118.56625867 1.57333722 -114.375 1.41015625 C-113.58649658 1.37334244 -112.79799316 1.33652863 -111.9855957 1.29859924 C-100.99640628 0.81936259 -89.99716572 0.6293785 -79 0.4375 C-77.84699402 0.41632111 -76.69398804 0.39514221 -75.50604248 0.37332153 C-50.33722689 -0.08316597 -25.17198786 -0.10700976 0 0 Z " fill="#209BC7" transform="translate(344,304)"/>
<path d="M0 0 C5.94 0 11.88 0 18 0 C18 0.33 18 0.66 18 1 C15.36 1.33 12.72 1.66 10 2 C10 3.32 10 4.64 10 6 C10.9590625 5.7215625 10.9590625 5.7215625 11.9375 5.4375 C12.618125 5.293125 13.29875 5.14875 14 5 C14.33 5.33 14.66 5.66 15 6 C14.12149533 13.76012461 14.12149533 13.76012461 13 17 C10.6699002 18.1650499 9.32752923 18.1209358 6.73388672 18.11352539 C5.41274368 18.11341209 5.41274368 18.11341209 4.06491089 18.11329651 C3.11278717 18.10813522 2.16066345 18.10297394 1.1796875 18.09765625 C0.20589142 18.0962413 -0.76790466 18.09482635 -1.77120972 18.09336853 C-4.88917073 18.08775973 -8.0070606 18.07520573 -11.125 18.0625 C-13.23567605 18.05748613 -15.34635322 18.05292303 -17.45703125 18.04882812 C-22.63804521 18.03778745 -27.81901752 18.02104073 -33 18 C-33 17.67 -33 17.34 -33 17 C-18.81 16.67 -4.62 16.34 10 16 C10.99 13.36 11.98 10.72 13 8 C11.77893555 7.97494385 10.55787109 7.9498877 9.29980469 7.92407227 C4.76730955 7.82986421 0.23496286 7.72967616 -4.29736328 7.62768555 C-6.25859096 7.5843874 -8.2198551 7.54270869 -10.18115234 7.50268555 C-13.00108828 7.44485901 -15.82084161 7.38120016 -18.640625 7.31640625 C-19.51680481 7.29969376 -20.39298462 7.28298126 -21.29571533 7.26576233 C-22.11626404 7.24581711 -22.93681274 7.22587189 -23.78222656 7.20532227 C-24.86144379 7.18200584 -24.86144379 7.18200584 -25.96246338 7.15821838 C-28 7 -28 7 -29.88373566 6.5 C-33.44091301 5.65956214 -37.07773125 5.81999115 -40.71582031 5.79467773 C-41.59422577 5.78477814 -42.47263123 5.77487854 -43.37765503 5.76467896 C-46.27778438 5.73312039 -49.17793009 5.7083288 -52.078125 5.68359375 C-54.09023461 5.66301935 -56.10233994 5.64202275 -58.11444092 5.62062073 C-63.40800512 5.56545024 -68.70160801 5.51601879 -73.99523926 5.46777344 C-79.39790282 5.41752176 -84.80051028 5.36185483 -90.203125 5.30664062 C-100.80203539 5.19912048 -111.40099451 5.09766184 -122 5 C-122 4.67 -122 4.34 -122 4 C-110.22143121 3.97683194 -98.44286783 3.9590621 -86.66428089 3.94818783 C-81.19504301 3.94296879 -75.72582071 3.93588886 -70.2565918 3.92456055 C-64.97870925 3.91369695 -59.7008417 3.90771577 -54.42294884 3.90512276 C-52.40912324 3.90327478 -50.39529847 3.8996662 -48.38147926 3.89426994 C-45.56134898 3.88701349 -42.7412807 3.88601101 -39.92114258 3.88647461 C-38.67173134 3.8810817 -38.67173134 3.8810817 -37.39707947 3.87557983 C-33.44560353 3.88261093 -29.86731885 4.0933758 -26 5 C-23.86971994 5.0793925 -21.73720378 5.10775926 -19.60546875 5.09765625 C-18.40341797 5.09443359 -17.20136719 5.09121094 -15.96289062 5.08789062 C-14.71701172 5.07951172 -13.47113281 5.07113281 -12.1875 5.0625 C-10.92228516 5.05798828 -9.65707031 5.05347656 -8.35351562 5.04882812 C-5.2356289 5.03706251 -2.11783867 5.02062272 1 5 C0.505 2.525 0.505 2.525 0 0 Z " fill="#179ED0" transform="translate(346,237)"/>
<path d="M0 0 C0.74804901 0.0195575 1.49609802 0.03911499 2.26681519 0.05926514 C12.63310689 0.33739945 22.96701217 0.85055433 33.3125 1.5625 C33.3125 1.8925 33.3125 2.2225 33.3125 2.5625 C18.89172545 2.60919944 4.4709626 2.64434583 -9.94987202 2.66612434 C-16.64556398 2.67657529 -23.34120364 2.69051003 -30.03686523 2.71337891 C-36.49480375 2.73506049 -42.95269342 2.74705874 -49.41066551 2.75225449 C-51.87830563 2.75595867 -54.34594299 2.7631917 -56.81356239 2.77396011 C-60.26159127 2.78841268 -63.70941656 2.79048055 -67.1574707 2.78955078 C-68.69818993 2.80033661 -68.69818993 2.80033661 -70.27003479 2.81134033 C-71.20812988 2.808591 -72.14622498 2.80584167 -73.11274719 2.80300903 C-73.92853398 2.80485262 -74.74432077 2.80669621 -75.58482838 2.80859566 C-77.6875 2.5625 -77.6875 2.5625 -80.6875 0.5625 C-53.76670474 -0.32502468 -26.93163376 -0.71930741 0 0 Z " fill="#2789A0" transform="translate(254.6875,268.4375)"/>
<path d="M0 0 C3.56729532 0.01038319 7.1345981 0.01482916 10.7019043 0.01983643 C17.65309399 0.03043753 24.6042548 0.0474166 31.55541992 0.06866455 C31.55541992 0.39866455 31.55541992 0.72866455 31.55541992 1.06866455 C56.30541992 1.39866455 81.05541992 1.72866455 106.55541992 2.06866455 C106.55541992 2.39866455 106.55541992 2.72866455 106.55541992 3.06866455 C90.88868138 3.09224901 75.2219478 3.109767 59.55519581 3.12047672 C52.27735099 3.12558633 44.99951733 3.13252434 37.72167969 3.144104 C31.36247727 3.15421703 25.00328295 3.1605565 18.64407271 3.16275305 C15.29132868 3.16403264 11.93862579 3.1675007 8.585886 3.17439461 C-9.78457768 3.21060076 -28.09106741 2.82612528 -46.44458008 2.06866455 C-46.44458008 1.73866455 -46.44458008 1.40866455 -46.44458008 1.06866455 C-30.98197456 -0.21470132 -15.50130268 -0.05000711 0 0 Z " fill="#2C83A7" transform="translate(149.444580078125,317.93133544921875)"/>
<path d="M0 0 C0.33 0 0.66 0 1 0 C2.8573199 11.35520112 3.29686224 22.38817887 3.265625 33.875 C3.26697718 35.65608778 3.26892227 37.43717519 3.27142334 39.21826172 C3.27434866 42.926143 3.27016142 46.63392702 3.26074219 50.34179688 C3.24934928 55.05154162 3.2559228 59.76105826 3.26788712 64.47079468 C3.27517637 68.14121158 3.27278568 71.81157599 3.26763153 75.48199463 C3.26631448 77.21681751 3.26787298 78.95164544 3.27259064 80.6864624 C3.29514953 91.30829222 2.716633 101.50492429 1 112 C0.67 112 0.34 112 0 112 C0.33 77.68 0.66 43.36 1 8 C0.34 8 -0.32 8 -1 8 C-0.67 5.36 -0.34 2.72 0 0 Z " fill="#279EC6" transform="translate(482,134)"/>
<path d="M0 0 C0 0.33 0 0.66 0 1 C5.28 1.33 10.56 1.66 16 2 C16 2.33 16 2.66 16 3 C5.54167726 3.0304025 -4.91664029 3.05090448 -15.375 3.0625 C-16.14167118 3.06335602 -16.90834236 3.06421204 -17.698246 3.06509399 C-40.14545247 3.08726075 -62.57050216 3.00053283 -85 2 C-85 1.67 -85 1.34 -85 1 C-56.66537107 -0.07505757 -28.35207163 -0.11474569 0 0 Z " fill="#2B90B1" transform="translate(232,208)"/>
<path d="M0 0 C0 1.32 0 2.64 0 4 C-24.09 3.67 -48.18 3.34 -73 3 C-73.33 2.34 -73.66 1.68 -74 1 C-66.56644298 0.86806188 -59.13286155 0.73757898 -51.69924831 0.60884857 C-48.24585681 0.54900153 -44.79247479 0.488692 -41.33911133 0.42724609 C-37.34979677 0.35628585 -33.36044736 0.28748007 -29.37109375 0.21875 C-27.5513932 0.18593933 -27.5513932 0.18593933 -25.69493103 0.15246582 C-17.12866715 0.00713551 -8.56721599 -0.02373386 0 0 Z " fill="#2A85A6" transform="translate(238,247)"/>
<path d="M0 0 C0.99574036 -0.00043808 0.99574036 -0.00043808 2.01159668 -0.00088501 C4.19764445 0.0005042 6.38334798 0.01604575 8.56933594 0.03173828 C10.08819391 0.03546987 11.60705429 0.03831616 13.12591553 0.04031372 C17.1175403 0.04793869 21.10901882 0.06757734 25.10058594 0.08972168 C29.17608665 0.11020464 33.25161106 0.11932067 37.32714844 0.12939453 C45.31940295 0.15082437 53.31153873 0.18494652 61.30371094 0.22705078 C61.30371094 0.88705078 61.30371094 1.54705078 61.30371094 2.22705078 C51.37603474 3.44665337 41.47410868 3.3814929 31.49121094 3.35205078 C30.63075165 3.35116455 29.77029236 3.35027832 28.88375854 3.34936523 C15.66903176 3.3333651 2.49502892 3.06554545 -10.69628906 2.22705078 C-7.11282501 -0.00668469 -4.17174068 -0.01545089 0 0 Z " fill="#1C7690" transform="translate(152.6962890625,188.77294921875)"/>
<path d="M0 0 C0 0.99 0 1.98 0 3 C-59.46978297 3.21446412 -59.46978297 3.21446412 -88 2 C-88 1.67 -88 1.34 -88 1 C-58.67342324 -0.24836328 -29.34749444 -0.105835 0 0 Z " fill="#2A93B8" transform="translate(184,171)"/>
<path d="M0 0 C1.18077118 0.00007553 2.36154236 0.00015106 3.57809448 0.00022888 C5.46747238 0.00797081 5.46747238 0.00797081 7.39501953 0.01586914 C8.6960965 0.01728409 9.99717346 0.01869904 11.337677 0.02015686 C14.78013057 0.02395695 18.22254128 0.03376556 21.66497803 0.04486084 C25.18436097 0.05512914 28.7037509 0.05966605 32.22314453 0.06469727 C39.11639119 0.0753903 46.00960955 0.09243628 52.90283203 0.11352539 C52.90283203 0.44352539 52.90283203 0.77352539 52.90283203 1.11352539 C58.18283203 1.44352539 63.46283203 1.77352539 68.90283203 2.11352539 C68.90283203 2.44352539 68.90283203 2.77352539 68.90283203 3.11352539 C59.67063853 3.13676834 50.4384552 3.15450115 41.20623875 3.16533756 C36.91865055 3.17054034 32.63108248 3.17759033 28.34350586 3.18896484 C24.20027915 3.19988674 20.05707171 3.20582182 15.91383171 3.20840263 C14.33872105 3.2102402 12.76361137 3.21382829 11.18850899 3.21925545 C3.36434973 3.24512476 -4.3322539 3.22170325 -12.09716797 2.11352539 C-12.09716797 1.78352539 -12.09716797 1.45352539 -12.09716797 1.11352539 C-8.0094209 0.34417612 -4.15716177 -0.00892095 0 0 Z " fill="#2593BB" transform="translate(139.09716796875,288.886474609375)"/>
<path d="M0 0 C1.24083344 0.00007553 2.48166687 0.00015106 3.76010132 0.00022888 C5.09869426 0.00533426 6.43728679 0.01055024 7.77587891 0.01586914 C9.15735828 0.01773633 10.53883833 0.01915881 11.9203186 0.02015686 C15.54032244 0.02395837 19.16028558 0.03376823 22.78027344 0.04486084 C26.48062591 0.05512605 30.18098502 0.05966539 33.88134766 0.06469727 C41.13006404 0.07539281 48.378747 0.09244054 55.62744141 0.11352539 C56.12244141 1.59852539 56.12244141 1.59852539 56.62744141 3.11352539 C34.18744141 3.11352539 11.74744141 3.11352539 -11.37255859 3.11352539 C-11.70255859 2.45352539 -12.03255859 1.79352539 -12.37255859 1.11352539 C-8.19171295 0.32144853 -4.25269968 -0.00867898 0 0 Z " fill="#2896BD" transform="translate(242.37255859375,216.886474609375)"/>
<path d="M0 0 C3.05359299 -0.04556734 6.10695115 -0.07665518 9.1607666 -0.10253906 C10.50487106 -0.12483582 10.50487106 -0.12483582 11.87612915 -0.14758301 C16.26869423 -0.16790336 19.67326775 -0.02225407 23.6685791 2.05371094 C23.6685791 2.38371094 23.6685791 2.71371094 23.6685791 3.05371094 C15.48723744 3.07710545 7.30591026 3.0947618 -0.87545681 3.10552311 C-4.67630145 3.11069362 -8.47712284 3.11768219 -12.2779541 3.12915039 C-44.60832763 3.224245 -44.60832763 3.224245 -58.3314209 2.05371094 C-58.3314209 1.72371094 -58.3314209 1.39371094 -58.3314209 1.05371094 C-50.90146336 0.90831197 -43.47144589 0.76631368 -36.04138184 0.62646484 C-33.52411495 0.57870921 -31.00686166 0.53023034 -28.48962402 0.48095703 C-18.99337464 0.29542425 -9.49678434 0.1531122 0 0 Z " fill="#2C83A8" transform="translate(142.3314208984375,280.9462890625)"/>
<path d="M0 0 C0 0.33 0 0.66 0 1 C5.94 1.33 11.88 1.66 18 2 C18 2.33 18 2.66 18 3 C-14.68191872 3.13940053 -47.32772839 2.80614044 -80 2 C-80 1.67 -80 1.34 -80 1 C-53.32847641 0.31522753 -26.68079742 -0.16944327 0 0 Z " fill="#368EB1" transform="translate(158,239)"/>
<path d="M0 0 C0.69544922 0.04769531 1.39089844 0.09539062 2.10742188 0.14453125 C3.75943522 0.2584632 5.41102804 0.3784725 7.0625 0.5 C6.7325 1.16 6.4025 1.82 6.0625 2.5 C-1.76990108 2.65429747 -9.60239237 2.80247301 -17.43505192 2.9429636 C-21.07256955 3.00839761 -24.71002398 3.0758921 -28.34741211 3.14819336 C-31.86161561 3.21796859 -35.37588175 3.2822035 -38.89025688 3.34269524 C-40.8749128 3.37827444 -42.85946489 3.41950157 -44.8440094 3.46083069 C-50.66042074 3.55658287 -56.21577821 3.6070693 -61.9375 2.5 C-61.9375 2.17 -61.9375 1.84 -61.9375 1.5 C-57.85343898 0.54387669 -53.94636275 0.30536949 -49.7578125 0.18359375 C-49.06799286 0.16281265 -48.37817322 0.14203156 -47.66744995 0.12062073 C-46.2067435 0.07750271 -44.745975 0.03644353 -43.28515625 -0.00268555 C-41.10399548 -0.0613833 -38.92312039 -0.12678301 -36.7421875 -0.19335938 C-24.49361923 -0.55338386 -12.23303457 -0.86605554 0 0 Z " fill="#10A2C8" transform="translate(250.9375,341.5)"/>
<path d="M0 0 C2.31 0 4.62 0 7 0 C7 0.99 7 1.98 7 3 C5 5 5 5 1.30477905 5.20254517 C-0.32377965 5.19053963 -1.95227634 5.16717659 -3.58056641 5.13525391 C-4.46843338 5.12579239 -5.35630035 5.11633087 -6.27107239 5.10658264 C-9.21477489 5.07282215 -12.15806333 5.02472968 -15.1015625 4.9765625 C-17.13893543 4.95040391 -19.17631997 4.92513623 -21.2137146 4.90072632 C-26.58311636 4.83399172 -31.9522746 4.75511706 -37.32147217 4.67376709 C-42.79755284 4.5929285 -48.27377661 4.52349772 -53.75 4.453125 C-64.50017158 4.31328811 -75.25012049 4.16063378 -86 4 C-86 3.67 -86 3.34 -86 3 C-78.25266899 2.85392586 -70.50526832 2.71204892 -62.7578125 2.57275391 C-60.13604221 2.52543958 -57.51431033 2.47669395 -54.89257812 2.42724609 C-36.59156131 2.08287212 -18.30398582 1.93025418 0 2 C0 1.34 0 0.68 0 0 Z " fill="#2897C2" transform="translate(247,195)"/>
<path d="M0 0 C9.36605145 0.75494621 18.74993775 0.88498947 28.140625 1.08984375 C30.00847092 1.13314625 31.87630957 1.17676377 33.74414062 1.22070312 C38.27205984 1.32654393 42.80005576 1.42813772 47.328125 1.52734375 C47.328125 1.85734375 47.328125 2.18734375 47.328125 2.52734375 C46.16967575 2.54280495 46.16967575 2.54280495 44.98782349 2.55857849 C37.7185936 2.65645369 30.44945079 2.75895375 23.18036079 2.86668301 C19.44302464 2.92190694 15.70568065 2.97532607 11.96826172 3.0246582 C8.36315885 3.07230962 4.75815215 3.12465267 1.15316391 3.1802845 C-0.22395567 3.20070454 -1.60110162 3.21941822 -2.97826767 3.23641777 C-4.903379 3.26046922 -6.82840495 3.29108626 -8.75341797 3.32202148 C-9.85040009 3.33756577 -10.9473822 3.35311005 -12.0776062 3.36912537 C-14.65641252 3.3563057 -14.65641252 3.3563057 -16.671875 4.52734375 C-16.671875 3.86734375 -16.671875 3.20734375 -16.671875 2.52734375 C-22.281875 2.52734375 -27.891875 2.52734375 -33.671875 2.52734375 C-33.341875 1.86734375 -33.011875 1.20734375 -32.671875 0.52734375 C-22.1236748 -1.46217444 -10.65963063 -0.91637677 0 0 Z " fill="#07A8D8" transform="translate(224.671875,288.47265625)"/>
<path d="M0 0 C8.81426911 -0.04631323 17.62849642 -0.08186401 26.4428606 -0.10362434 C30.53559983 -0.1140675 34.6282559 -0.12823636 38.72094727 -0.15087891 C42.66963711 -0.17258839 46.61824689 -0.18456462 50.56699181 -0.18975449 C52.07450305 -0.19345366 53.58200986 -0.20067711 55.08948708 -0.21146011 C57.19883363 -0.22595004 59.30784812 -0.22797902 61.41723633 -0.22705078 C62.61858719 -0.231492 63.81993805 -0.23593323 65.05769348 -0.24050903 C68 0 68 0 71 2 C68.11633882 2.96122039 66.44559296 3.10035493 63.46289062 3.03759766 C62.54342651 3.02072906 61.6239624 3.00386047 60.67663574 2.98648071 C59.67990845 2.9625827 58.68318115 2.93868469 57.65625 2.9140625 C56.09880066 2.88220352 56.09880066 2.88220352 54.5098877 2.84970093 C52.30064548 2.80336691 50.09145651 2.75443305 47.88232422 2.703125 C44.56878503 2.6265888 41.255161 2.55865107 37.94140625 2.4921875 C25.27800968 2.22456049 12.64331646 1.76321997 0 1 C0 0.67 0 0.34 0 0 Z " fill="#2595BB" transform="translate(284,180)"/>
<path d="M0 0 C19.14 0 38.28 0 58 0 C58.495 0.99 58.495 0.99 59 2 C45.55301642 2.92289825 32.27960043 2.99564874 18.8125 2.5625 C16.97202553 2.50906111 15.13153055 2.45632384 13.29101562 2.40429688 C8.86040027 2.27756964 4.43016645 2.14152143 0 2 C0 1.34 0 0.68 0 0 Z " fill="#174F70" transform="translate(97,306)"/>
<path d="M0 0 C0.12375 1.051875 0.2475 2.10375 0.375 3.1875 C0.91140782 6.45958771 1.63880035 9.00536076 3 12 C2.51917969 12.39832031 2.03835938 12.79664063 1.54296875 13.20703125 C-0.37391825 15.43450247 -0.47741643 16.78834669 -0.6875 19.6875 C-0.75324219 20.49574219 -0.81898438 21.30398437 -0.88671875 22.13671875 C-0.92410156 22.75160156 -0.96148437 23.36648437 -1 24 C-1.33 24 -1.66 24 -2 24 C-2 19.71 -2 15.42 -2 11 C-15.86 11 -29.72 11 -44 11 C-44 10.67 -44 10.34 -44 10 C-43.0713916 9.97494385 -42.1427832 9.9498877 -41.18603516 9.92407227 C-37.74564196 9.82902068 -34.30542287 9.72978293 -30.86523438 9.62768555 C-29.37537359 9.58433411 -27.88546305 9.54265916 -26.39550781 9.50268555 C-24.25570673 9.44498785 -22.11615615 9.38129245 -19.9765625 9.31640625 C-18.68830566 9.27974854 -17.40004883 9.24309082 -16.07275391 9.20532227 C-13.0872318 9.20469325 -13.0872318 9.20469325 -11 8 C-9.29297265 7.93003986 -7.58331997 7.91559846 -5.875 7.9375 C-4.96492188 7.94652344 -4.05484375 7.95554688 -3.1171875 7.96484375 C-2.06917969 7.98224609 -2.06917969 7.98224609 -1 8 C-1 7.01 -1 6.02 -1 5 C-1.66 5 -2.32 5 -3 5 C-3.495 3.02 -3.495 3.02 -4 1 C-1 0 -1 0 0 0 Z " fill="#0A9BCB" transform="translate(356,181)"/>
<path d="M0 0 C0.99 0.33 1.98 0.66 3 1 C-7.81153982 8.8977915 -17.76490149 11.14959224 -31.046875 11.16796875 C-32.32464813 11.17296135 -32.32464813 11.17296135 -33.62823486 11.17805481 C-35.42337509 11.18309457 -37.21852459 11.18546405 -39.01367188 11.18530273 C-41.72802578 11.18748235 -44.44196817 11.20565077 -47.15625 11.22460938 C-55.955016 11.25220788 -64.40883747 11.18492822 -73 9 C-73 8.67 -73 8.34 -73 8 C-69.04 8 -65.08 8 -61 8 C-61 8.66 -61 9.32 -61 10 C-55.80372161 9.88162595 -50.60762956 9.75736882 -45.41162109 9.62768555 C-43.64440728 9.58440486 -41.8771535 9.54272495 -40.10986328 9.50268555 C-37.5679114 9.44481649 -35.02615941 9.38117019 -32.484375 9.31640625 C-31.30134796 9.29133751 -31.30134796 9.29133751 -30.09442139 9.26576233 C-26.57092927 9.17085337 -23.39946015 8.88575901 -20 8 C-18.58465222 7.93543121 -17.16662311 7.91388961 -15.75 7.9375 C-13.89375 7.9684375 -13.89375 7.9684375 -12 8 C-12 7.34 -12 6.68 -12 6 C-10.68 6 -9.36 6 -8 6 C-8 5.34 -8 4.68 -8 4 C-6.68 3.67 -5.36 3.34 -4 3 C-4.495 2.01 -4.495 2.01 -5 1 C-3.35 1.33 -1.7 1.66 0 2 C0 1.34 0 0.68 0 0 Z " fill="#31A5D0" transform="translate(461,395)"/>
<path d="M0 0 C0.495 0.99 0.495 0.99 1 2 C0.67 2.99 0.34 3.98 0 5 C-7.26 5 -14.52 5 -22 5 C-22 4.67 -22 4.34 -22 4 C-15.07 4 -8.14 4 -1 4 C-1 3.34 -1 2.68 -1 2 C-24.1 2 -47.2 2 -71 2 C-71 1.67 -71 1.34 -71 1 C-63.51462515 0.86838436 -56.02923102 0.73791537 -48.5438118 0.60884857 C-45.0667957 0.54886165 -41.58978695 0.48850246 -38.11279297 0.42724609 C-34.10125651 0.35658961 -30.08969226 0.28763581 -26.078125 0.21875 C-24.84950745 0.19687622 -23.62088989 0.17500244 -22.3550415 0.15246582 C-14.90249171 0.02605442 -7.45359261 -0.02691059 0 0 Z " fill="#1996C2" transform="translate(368,223)"/>
<path d="M0 0 C0.96813629 0.00141495 1.93627258 0.0028299 2.93374634 0.00428772 C6.01055049 0.0098626 9.08728053 0.02241048 12.1640625 0.03515625 C14.25650936 0.0401745 16.34895737 0.04473684 18.44140625 0.04882812 C23.55732 0.0598238 28.67317871 0.0770711 33.7890625 0.09765625 C33.7890625 0.42765625 33.7890625 0.75765625 33.7890625 1.09765625 C28.69861477 1.92025395 23.71228164 2.28166665 18.5546875 2.37890625 C17.41492462 2.40652039 17.41492462 2.40652039 16.25213623 2.43469238 C13.02971313 2.5127605 9.80710944 2.58130832 6.58447266 2.64990234 C4.22027344 2.70163848 1.85625079 2.75883988 -0.5078125 2.81640625 C-1.23595154 2.82998169 -1.96409058 2.84355713 -2.71429443 2.85754395 C-5.79712437 2.93356822 -8.26459118 3.11554081 -11.2109375 4.09765625 C-13.54427083 4.09765625 -15.87760417 4.09765625 -18.2109375 4.09765625 C-20.2174106 4.38950688 -22.22087943 4.70935224 -24.2109375 5.09765625 C-16.59573778 0.02085643 -8.86370649 -0.04911344 0 0 Z " fill="#1D9BCC" transform="translate(407.2109375,93.90234375)"/>
<path d="M0 0 C5.28 0 10.56 0 16 0 C16 0.33 16 0.66 16 1 C13.69 1.33 11.38 1.66 9 2 C10.12019531 2.04898438 11.24039063 2.09796875 12.39453125 2.1484375 C13.86721203 2.22347856 15.33986707 2.29902582 16.8125 2.375 C17.55048828 2.4059375 18.28847656 2.436875 19.04882812 2.46875 C22.81893115 2.67346148 24.79650741 2.86433827 28 5 C18.76 5 9.52 5 0 5 C0 4.34 0 3.68 0 3 C-6.27 3 -12.54 3 -19 3 C-19 2.67 -19 2.34 -19 2 C-12.73 2 -6.46 2 0 2 C0 1.34 0 0.68 0 0 Z " fill="#23A1CF" transform="translate(184,170)"/>
<path d="M0 0 C0 0.33 0 0.66 0 1 C-2.31 1 -4.62 1 -7 1 C-7.28875 1.5775 -7.5775 2.155 -7.875 2.75 C-9 5 -9 5 -10.05038452 6.73358154 C-11.31123116 9.74280596 -11.28150737 12.25164373 -11.31884766 15.51269531 C-11.32889328 16.15701508 -11.3389389 16.80133484 -11.34928894 17.46517944 C-11.38007823 19.58615256 -11.39714378 21.7069997 -11.4140625 23.828125 C-11.43277762 25.30215536 -11.4523513 26.77617505 -11.4727478 28.25018311 C-11.52403885 32.12330834 -11.56368062 35.99646829 -11.60089111 39.86975098 C-11.64094983 43.82471281 -11.69203363 47.77953058 -11.7421875 51.734375 C-11.8389109 59.48948444 -11.92332699 67.24466367 -12 75 C-12.99 75.495 -12.99 75.495 -14 76 C-13.9851215 66.82879639 -13.94351262 57.65821495 -13.86790943 48.48730946 C-13.8336393 44.22869151 -13.80852948 39.97043229 -13.80444336 35.71166992 C-13.80016034 31.60052891 -13.77169856 27.49019712 -13.72656822 23.3793087 C-13.71359311 21.81210738 -13.70928563 20.24480921 -13.71384621 18.67756081 C-13.7187527 16.47922362 -13.69266466 14.28325123 -13.65942383 12.08520508 C-13.65276199 10.83500076 -13.64610016 9.58479645 -13.63923645 8.29670715 C-12.07877851 0.24902333 -6.99510879 -0.59280583 0 0 Z " fill="#178AB5" transform="translate(479,284)"/>
<path d="M0 0 C1.11181641 0.00322266 2.22363281 0.00644531 3.36914062 0.00976562 C4.51962891 0.01814453 5.67011719 0.02652344 6.85546875 0.03515625 C8.02529297 0.03966797 9.19511719 0.04417969 10.40039062 0.04882812 C13.28130233 0.06058695 16.16210919 0.07702199 19.04296875 0.09765625 C19.04296875 0.42765625 19.04296875 0.75765625 19.04296875 1.09765625 C17.06296875 1.09765625 15.08296875 1.09765625 13.04296875 1.09765625 C13.04296875 1.75765625 13.04296875 2.41765625 13.04296875 3.09765625 C15.02296875 3.09765625 17.00296875 3.09765625 19.04296875 3.09765625 C19.04296875 3.42765625 19.04296875 3.75765625 19.04296875 4.09765625 C14.79298309 4.12668621 10.54302294 4.14446512 6.29296875 4.16015625 C4.483125 4.17272461 4.483125 4.17272461 2.63671875 4.18554688 C0.89648438 4.19038086 0.89648438 4.19038086 -0.87890625 4.1953125 C-1.9472168 4.20054932 -3.01552734 4.20578613 -4.11621094 4.21118164 C-6.5809236 4.11268633 -8.60948592 3.81331089 -10.95703125 3.09765625 C-10.95703125 2.43765625 -10.95703125 1.77765625 -10.95703125 1.09765625 C-7.23814259 0.23439615 -3.81406637 -0.01955931 0 0 Z " fill="#299EC7" transform="translate(236.95703125,154.90234375)"/>
<path d="M0 0 C-0.33 0.66 -0.66 1.32 -1 2 C-16.32410591 3.2418957 -31.63592172 3.101915 -47 3 C-43.40742421 0.60494947 -40.60831605 0.55096635 -36.4375 0.375 C-35.29015381 0.31807983 -35.29015381 0.31807983 -34.11962891 0.26000977 C-22.75630948 -0.23119038 -11.37069171 -0.08588136 0 0 Z " fill="#099CCE" transform="translate(266,305)"/>
<path d="M0 0 C1.71874472 0.01006063 3.43749522 0.01918097 5.15625 0.02734375 C9.31264602 0.04908838 13.46875679 0.08344396 17.625 0.125 C17.625 0.455 17.625 0.785 17.625 1.125 C16.86993164 1.15005615 16.11486328 1.1751123 15.33691406 1.20092773 C11.84949906 1.31840024 8.36225691 1.44042779 4.875 1.5625 C3.68777344 1.60181641 2.50054687 1.64113281 1.27734375 1.68164062 C-6.29823744 1.95071865 -13.82755932 2.41796964 -21.375 3.125 C-21.375 4.445 -21.375 5.765 -21.375 7.125 C-25.995 7.125 -30.615 7.125 -35.375 7.125 C-35.375 6.795 -35.375 6.465 -35.375 6.125 C-30.92 5.63 -30.92 5.63 -26.375 5.125 C-26.375 4.465 -26.375 3.805 -26.375 3.125 C-28.685 3.125 -30.995 3.125 -33.375 3.125 C-33.375 2.795 -33.375 2.465 -33.375 2.125 C-22.16959386 0.08702681 -11.34704507 -0.1169571 0 0 Z " fill="#179ED1" transform="translate(321.375,167.875)"/>
<path d="M0 0 C1.19625 0.03544922 2.3925 0.07089844 3.625 0.10742188 C5.33429688 0.17219727 5.33429688 0.17219727 7.078125 0.23828125 C8.1187207 0.27606689 9.15931641 0.31385254 10.23144531 0.3527832 C12.75 0.6875 12.75 0.6875 14.75 2.6875 C-11.01153846 4.51826923 -11.01153846 4.51826923 -19.25 2.6875 C-19.25 2.0275 -19.25 1.3675 -19.25 0.6875 C-12.75926089 -0.56272554 -6.57494171 -0.26199276 0 0 Z " fill="#0CA1D6" transform="translate(269.25,155.3125)"/>
<path d="M0 0 C0 1.32 0 2.64 0 4 C-17.85649203 4.18451025 -17.85649203 4.18451025 -26 3 C-26 2.34 -26 1.68 -26 1 C-17.30019136 -0.01286753 -8.74507107 -0.10621544 0 0 Z " fill="#2F9CBF" transform="translate(238,247)"/>
<path d="M0 0 C1.4540625 0.0309375 1.4540625 0.0309375 2.9375 0.0625 C0.04878645 2.95121355 -2.40680341 3.18623447 -6.31518555 3.2043457 C-7.59748299 3.21489738 -7.59748299 3.21489738 -8.90568542 3.22566223 C-9.82755142 3.22982651 -10.74941742 3.23399078 -11.69921875 3.23828125 C-13.65821377 3.26148819 -15.61719817 3.28560588 -17.57617188 3.31054688 C-20.65916969 3.34558373 -23.74177897 3.3749641 -26.82495117 3.38842773 C-29.80435172 3.40397909 -32.7826203 3.44424236 -35.76171875 3.48828125 C-36.67346359 3.48637283 -37.58520844 3.48446442 -38.52458191 3.48249817 C-46.32598083 3.63026817 -52.06339392 6.06324493 -58.0625 11.0625 C-57.0625 9.0625 -56.0625 7.0625 -55.0625 5.0625 C-53.0625 4.72916667 -51.0625 4.39583333 -49.0625 4.0625 C-48.7325 3.4025 -48.4025 2.7425 -48.0625 2.0625 C-47.51348526 2.05219254 -46.96447052 2.04188507 -46.39881897 2.03126526 C-40.70528719 1.92342053 -35.01192079 1.80880551 -29.31860352 1.69018555 C-27.19135993 1.64676577 -25.0640799 1.60509607 -22.93676758 1.56518555 C-19.88611849 1.50765293 -16.83565411 1.44391033 -13.78515625 1.37890625 C-12.82787125 1.36219376 -11.87058624 1.34548126 -10.8842926 1.32826233 C-9.56303627 1.2983445 -9.56303627 1.2983445 -8.21508789 1.26782227 C-7.43565323 1.25227798 -6.65621857 1.2367337 -5.85316467 1.22071838 C-3.06083248 0.97399531 -3.29079254 0.06715903 0 0 Z " fill="#259CCA" transform="translate(441.0625,230.9375)"/>
<path d="M0 0 C0 0.33 0 0.66 0 1 C-7.9199413 1.87495179 -15.7234313 2.12590042 -23.6875 2.0625 C-25.33008789 2.05573242 -25.33008789 2.05573242 -27.00585938 2.04882812 C-29.67063309 2.03719156 -32.33528517 2.02084564 -35 2 C-35.33 1.34 -35.66 0.68 -36 0 C-24.17336288 -2.20763893 -11.93151049 -0.80019711 0 0 Z " fill="#1F9BB6" transform="translate(266,218)"/>
<path d="M0 0 C1.24716797 0.00322266 2.49433594 0.00644531 3.77929688 0.00976562 C5.07287109 0.01814453 6.36644531 0.02652344 7.69921875 0.03515625 C9.66858398 0.04192383 9.66858398 0.04192383 11.67773438 0.04882812 C14.91410885 0.06059676 18.15039053 0.07703865 21.38671875 0.09765625 C21.38671875 0.75765625 21.38671875 1.41765625 21.38671875 2.09765625 C17.19965028 2.29575701 13.0120622 2.47924141 8.82421875 2.66015625 C7.64279297 2.71623047 6.46136719 2.77230469 5.24414062 2.83007812 C-0.52508587 3.0724826 -5.93749008 3.22281309 -11.61328125 2.09765625 C-11.61328125 1.76765625 -11.61328125 1.43765625 -11.61328125 1.09765625 C-7.68039761 0.16677716 -4.03673962 -0.0184326 0 0 Z " fill="#1E60A8" transform="translate(200.61328125,341.90234375)"/>
<path d="M0 0 C2.26805001 0.53848763 4.36478809 0.71561775 6.69189453 0.82568359 C7.53623047 0.86757812 8.38056641 0.90947266 9.25048828 0.95263672 C10.55953125 1.01161133 10.55953125 1.01161133 11.89501953 1.07177734 C12.78318359 1.11496094 13.67134766 1.15814453 14.58642578 1.20263672 C16.77247916 1.3084135 18.95864042 1.41050281 21.14501953 1.50927734 C21.14501953 1.83927734 21.14501953 2.16927734 21.14501953 2.50927734 C6.95501953 2.50927734 -7.23498047 2.50927734 -21.85498047 2.50927734 C-21.85498047 2.17927734 -21.85498047 1.84927734 -21.85498047 1.50927734 C-14.8543828 -0.15895019 -7.12854984 -1.8858101 0 0 Z " fill="#0DA6D4" transform="translate(173.85498046875,238.49072265625)"/>
<path d="M0 0 C0 0.99 0 1.98 0 3 C-19.14 2.67 -38.28 2.34 -58 2 C-58 1.67 -58 1.34 -58 1 C-50.73305188 0.86940636 -43.46610034 0.73900438 -36.19914436 0.60884857 C-32.82498125 0.54840911 -29.45081936 0.48790307 -26.07666016 0.42724609 C-22.19954725 0.35758033 -18.32243031 0.28814223 -14.4453125 0.21875 C-12.6233989 0.18593933 -12.6233989 0.18593933 -10.76467896 0.15246582 C-9.08316238 0.12243469 -9.08316238 0.12243469 -7.36767578 0.09179688 C-5.88208664 0.06514954 -5.88208664 0.06514954 -4.3664856 0.03796387 C-2.91112265 0.0146165 -1.45555021 0 0 0 Z " fill="#1F94BF" transform="translate(354,292)"/>
<path d="M0 0 C8.25 0 16.5 0 25 0 C25 1.33333333 25 2.66666667 25 4 C17.41 4 9.82 4 2 4 C2 3.67 2 3.34 2 3 C6.62 2.67 11.24 2.34 16 2 C10.72 1.67 5.44 1.34 0 1 C0 0.67 0 0.34 0 0 Z " fill="#1892BD" transform="translate(266,155)"/>
<path d="M0 0 C1.68879677 0.01005043 3.37759934 0.01917263 5.06640625 0.02734375 C9.16941594 0.04919261 13.27214282 0.08360846 17.375 0.125 C17.375 0.455 17.375 0.785 17.375 1.125 C16.36711426 1.13958252 15.35922852 1.15416504 14.32080078 1.16918945 C10.53709613 1.22770505 6.75395394 1.30492807 2.97070312 1.38745117 C1.34156508 1.42045249 -0.28768051 1.44855935 -1.91699219 1.47143555 C-15.03400589 1.64553103 -15.03400589 1.64553103 -27.625 5.125 C-27.955 4.135 -28.285 3.145 -28.625 2.125 C-19.08411961 -0.34280409 -9.77686346 -0.10162262 0 0 Z " fill="#038CBE" transform="translate(415.625,111.875)"/>
<path d="M0 0 C2.125 0.375 2.125 0.375 4 1 C3.39552094 5.04706105 2.08830359 8.10764545 0.125 11.6875 C-0.38804687 12.64011719 -0.90109375 13.59273438 -1.4296875 14.57421875 C-3 17 -3 17 -6 19 C-6.33 18.01 -6.66 17.02 -7 16 C-6.01 16 -5.02 16 -4 16 C-4 14.68 -4 13.36 -4 12 C-3.34 11.67 -2.68 11.34 -2 11 C-2.02320313 10.37351562 -2.04640625 9.74703125 -2.0703125 9.1015625 C-2.09738281 7.87566406 -2.09738281 7.87566406 -2.125 6.625 C-2.14820313 5.81289063 -2.17140625 5.00078125 -2.1953125 4.1640625 C-2 2 -2 2 0 0 Z " fill="#119BD1" transform="translate(477,369)"/>
<path d="M0 0 C0 0.33 0 0.66 0 1 C-3.31187649 1.19977261 -6.62449376 1.38251777 -9.9375 1.5625 C-11.32678711 1.64661133 -11.32678711 1.64661133 -12.74414062 1.73242188 C-18.64376282 2.04292831 -24.1462738 1.81051594 -30 1 C-30 0.67 -30 0.34 -30 0 C-20.14952185 -1.90654416 -9.89681637 -1.38902686 0 0 Z " fill="#2055B5" transform="translate(157,290)"/>
<path d="M0 0 C0.99 0.33 1.98 0.66 3 1 C-5.84989055 7.46481367 -12.97635243 10.5249356 -24 10 C-21.1004339 8.34123921 -19.08364791 7.7638784 -15.75 7.875 C-13.89375 7.936875 -13.89375 7.936875 -12 8 C-12 7.34 -12 6.68 -12 6 C-10.68 6 -9.36 6 -8 6 C-8 5.34 -8 4.68 -8 4 C-6.68 3.67 -5.36 3.34 -4 3 C-4.33 2.34 -4.66 1.68 -5 1 C-2.525 1.495 -2.525 1.495 0 2 C0 1.34 0 0.68 0 0 Z " fill="#1D99C7" transform="translate(461,395)"/>
<path d="M0 0 C3.5624308 -0.05827558 7.12473819 -0.09368885 10.6875 -0.125 C12.19860352 -0.15013672 12.19860352 -0.15013672 13.74023438 -0.17578125 C14.71669922 -0.18222656 15.69316406 -0.18867188 16.69921875 -0.1953125 C17.59471436 -0.20578613 18.49020996 -0.21625977 19.4128418 -0.22705078 C22.26168257 0.02296544 24.40894543 0.81983488 27 2 C27 2.33 27 2.66 27 3 C18.09 2.67 9.18 2.34 0 2 C0 1.34 0 0.68 0 0 Z " fill="#2898C2" transform="translate(139,281)"/>
<path d="M0 0 C1.08152344 -0.01417969 2.16304688 -0.02835937 3.27734375 -0.04296875 C6.0625 0.1875 6.0625 0.1875 8.0625 2.1875 C1.00243115 3.12246219 -5.88362235 3.30836777 -13 3.25 C-14.05638672 3.24548828 -15.11277344 3.24097656 -16.20117188 3.23632812 C-18.78000908 3.22465918 -21.35872294 3.20828885 -23.9375 3.1875 C-23.9375 2.8575 -23.9375 2.5275 -23.9375 2.1875 C-22.11412109 2.09662109 -22.11412109 2.09662109 -20.25390625 2.00390625 C-18.66925772 1.91951668 -17.08462298 1.8348679 -15.5 1.75 C-14.69755859 1.71068359 -13.89511719 1.67136719 -13.06835938 1.63085938 C-8.26848239 1.36757498 -4.80889264 0.02859032 0 0 Z " fill="#0BBBCB" transform="translate(321.9375,327.8125)"/>
<path d="M0 0 C0 0.66 0 1.32 0 2 C-1.3303125 2.433125 -1.3303125 2.433125 -2.6875 2.875 C-4.71003996 3.56190036 -6.71716519 4.30020868 -8.6875 5.125 C-11 6 -11 6 -14 6 C-15.010625 6.515625 -16.02125 7.03125 -17.0625 7.5625 C-18.031875 8.036875 -19.00125 8.51125 -20 9 C-20.66 8.67 -21.32 8.34 -22 8 C-15.25941432 3.23640174 -8.37084509 0 0 0 Z " fill="#159BCA" transform="translate(398,215)"/>
<path d="M0 0 C0 3.11227195 -0.45627049 5.94152152 -1 9 C-2.32 9 -3.64 9 -5 9 C-5 10.32 -5 11.64 -5 13 C-5.66 13 -6.32 13 -7 13 C-7.12375 13.721875 -7.2475 14.44375 -7.375 15.1875 C-7.9904931 17.95721894 -8.88444374 20.3970354 -10 23 C-10.69921875 21.43359375 -10.69921875 21.43359375 -11 19 C-10.03546238 16.55514482 -9.03534281 14.36961298 -7.8125 12.0625 C-7.50763672 11.45470703 -7.20277344 10.84691406 -6.88867188 10.22070312 C-4.95191575 6.45681858 -2.74926719 3.21255834 0 0 Z " fill="#1699C6" transform="translate(368,110)"/>
<path d="M0 0 C4.29 0 8.58 0 13 0 C12.67 0.66 12.34 1.32 12 2 C7.07324223 3.22017833 2.16343228 3.11800815 -2.875 3.0625 C-3.65875 3.05798828 -4.4425 3.05347656 -5.25 3.04882812 C-7.16670014 3.03714093 -9.08336048 3.01920908 -11 3 C-11 2.67 -11 2.34 -11 2 C-7.37 2 -3.74 2 0 2 C0 1.34 0 0.68 0 0 Z " fill="#05B6CE" transform="translate(214,189)"/>
<path d="M0 0 C1.875 0.3125 1.875 0.3125 4 1 C4.66 1.99 5.32 2.98 6 4 C6.66 3.01 7.32 2.02 8 1 C8.99 1 9.98 1 11 1 C10.67 1.94875 10.34 2.8975 10 3.875 C8.89840809 6.77062452 8.89840809 6.77062452 9 9 C9.66 9 10.32 9 11 9 C11 10.65 11 12.3 11 14 C10.484375 13.34 9.96875 12.68 9.4375 12 C6.84274087 8.8064503 4.13386893 5.73785351 1.390625 2.671875 C0 1 0 1 0 0 Z " fill="#159AC7" transform="translate(451,117)"/>
<path d="M0 0 C0 5.86239256 -5.18696944 10.79588938 -9 15 C-9.99 15.33 -10.98 15.66 -12 16 C-11.67 14.68 -11.34 13.36 -11 12 C-10.01 12 -9.02 12 -8 12 C-7.67 10.35 -7.34 8.7 -7 7 C-6.01 6.67 -5.02 6.34 -4 6 C-4 4.35 -4 2.7 -4 1 C-2.68 0.67 -1.36 0.34 0 0 Z " fill="#1A9CCA" transform="translate(476,259)"/>
<path d="M0 0 C0 0.66 0 1.32 0 2 C-6.58183362 2.8931507 -12.42150508 2.95494281 -19 2 C-19 1.34 -19 0.68 -19 0 C-12.43507888 -0.78441153 -6.53162622 -1.10914408 0 0 Z " fill="#179FC8" transform="translate(231,248)"/>
<path d="M0 0 C2.31 0 4.62 0 7 0 C7 0.99 7 1.98 7 3 C5 5 5 5 2.8359375 5.1953125 C1.61777344 5.16050781 1.61777344 5.16050781 0.375 5.125 C-0.44226563 5.10695312 -1.25953125 5.08890625 -2.1015625 5.0703125 C-2.72804687 5.04710937 -3.35453125 5.02390625 -4 5 C-3.34 4.01 -2.68 3.02 -2 2 C-1.34 2 -0.68 2 0 2 C0 1.34 0 0.68 0 0 Z " fill="#0CC0E0" transform="translate(247,195)"/>
<path d="M0 0 C0 0.66 0 1.32 0 2 C-4.95 2 -9.9 2 -15 2 C-14 0 -14 0 -12.4375 -0.625 C-8.38989652 -1.24770823 -3.72286952 -1.86143476 0 0 Z " fill="#01A3DC" transform="translate(314,343)"/>
<path d="M0 0 C0.33 0 0.66 0 1 0 C1.29530201 8.8590604 1.29530201 8.8590604 -1 12 C-4.08888522 14.05925681 -4.70935927 14.2390374 -8.1875 14.125 C-10.0746875 14.063125 -10.0746875 14.063125 -12 14 C-12 13.67 -12 13.34 -12 13 C-9.69 13 -7.38 13 -5 13 C-4.67 11.68 -4.34 10.36 -4 9 C-3.01 9 -2.02 9 -1 9 C-0.67 6.03 -0.34 3.06 0 0 Z " fill="#1597C2" transform="translate(372,202)"/>
<path d="M0 0 C2.42933974 1.80241336 3.53997786 3.78220793 4.9375 6.4375 C3.9475 6.9325 3.9475 6.9325 2.9375 7.4375 C-0.0325 5.4575 -3.0025 3.4775 -6.0625 1.4375 C-2.0625 -0.5625 -2.0625 -0.5625 0 0 Z " fill="#149BC9" transform="translate(379.0625,393.5625)"/>
<path d="M0 0 C1.96541379 3.50966748 2.94513932 7.1321775 4 11 C4.33 11.99 4.66 12.98 5 14 C5.03954234 16.33299825 5.04401732 18.66708189 5 21 C0.90041867 14.85062801 -0.48755971 7.3133957 0 0 Z " fill="#1C98C1" transform="translate(355,355)"/>
<path d="M0 0 C2.64 0 5.28 0 8 0 C8 0.66 8 1.32 8 2 C4.81175432 3.59412284 1.37103338 3.10174735 -2.125 3.0625 C-2.87910156 3.05798828 -3.63320312 3.05347656 -4.41015625 3.04882812 C-6.27347127 3.03703499 -8.13674555 3.01909942 -10 3 C-10 2.67 -10 2.34 -10 2 C-6.7 2 -3.4 2 0 2 C0 1.34 0 0.68 0 0 Z " fill="#084BCC" transform="translate(174,189)"/>
<path d="M0 0 C0.66 0.33 1.32 0.66 2 1 C-1.625 6.75 -1.625 6.75 -5 9 C-6.32 8.67 -7.64 8.34 -9 8 C-6.03 5.36 -3.06 2.72 0 0 Z " fill="#0F9BCE" transform="translate(378,101)"/>
<path d="M0 0 C1.65 0 3.3 0 5 0 C6.1577506 3.47325181 6.06866652 6.36067448 6 10 C2.51668565 6.98112756 1.20842856 4.43090471 0 0 Z " fill="#159ED0" transform="translate(360,376)"/>
<path d="M0 0 C0 0.99 0 1.98 0 3 C-6.1105424 3.11269443 -11.95170514 2.89604368 -18 2 C-18 1.67 -18 1.34 -18 1 C-15.37504621 0.83257698 -12.75004205 0.6660283 -10.125 0.5 C-9.00544922 0.42845703 -9.00544922 0.42845703 -7.86328125 0.35546875 C-2.2265625 0 -2.2265625 0 0 0 Z " fill="#249DC8" transform="translate(354,292)"/>
<path d="M0 0 C0.66 1.32 1.32 2.64 2 4 C1.51917969 4.39832031 1.03835938 4.79664063 0.54296875 5.20703125 C-1.37391825 7.43450247 -1.47741643 8.78834669 -1.6875 11.6875 C-1.75324219 12.49574219 -1.81898438 13.30398437 -1.88671875 14.13671875 C-1.92410156 14.75160156 -1.96148437 15.36648437 -2 16 C-2.33 16 -2.66 16 -3 16 C-3.0810206 13.89646505 -3.13919907 11.79204048 -3.1875 9.6875 C-3.22230469 8.51574219 -3.25710938 7.34398437 -3.29296875 6.13671875 C-3 3 -3 3 -1.48828125 1.08203125 C-0.99714844 0.72496094 -0.50601562 0.36789063 0 0 Z " fill="#0F9FCD" transform="translate(357,189)"/>
<path d="M0 0 C0.89203125 0.00902344 1.7840625 0.01804687 2.703125 0.02734375 C3.37859375 0.03894531 4.0540625 0.05054688 4.75 0.0625 C1.47698081 3.03159598 -0.63065762 3.40604794 -5 3.25 C-5.98484375 3.22292969 -6.9696875 3.19585937 -7.984375 3.16796875 C-8.73203125 3.13316406 -9.4796875 3.09835937 -10.25 3.0625 C-9.25 1.0625 -9.25 1.0625 -7.515625 0.44140625 C-4.96855716 0.01543111 -2.58143831 -0.03396629 0 0 Z " fill="#249ECD" transform="translate(267.25,340.9375)"/>
<path d="M0 0 C0 1.32 0 2.64 0 4 C-1.4800841 3.88637738 -2.95910074 3.75877092 -4.4375 3.625 C-5.26121094 3.55539062 -6.08492188 3.48578125 -6.93359375 3.4140625 C-7.61550781 3.27742188 -8.29742187 3.14078125 -9 3 C-9.33 2.34 -9.66 1.68 -10 1 C-6.59437148 0.22157062 -3.49234244 -0.09978121 0 0 Z " fill="#289ECA" transform="translate(354,327)"/>
<path d="M0 0 C0 0.33 0 0.66 0 1 C-2.31 1 -4.62 1 -7 1 C-7.4021875 1.86625 -7.4021875 1.86625 -7.8125 2.75 C-9.01719859 5.0325868 -10.40798115 6.9737942 -12 9 C-12.8125 7.3125 -12.8125 7.3125 -13 5 C-9.15306095 -0.46017156 -6.19783697 -0.52524042 0 0 Z " fill="#169AC8" transform="translate(479,284)"/>
<path d="M0 0 C1.23593891 3.70781672 0.5678132 4.67510253 -0.9375 8.1875 C-1.31777344 9.08855469 -1.69804687 9.98960937 -2.08984375 10.91796875 C-2.54037109 11.94857422 -2.54037109 11.94857422 -3 13 C-3.33 13 -3.66 13 -4 13 C-4.33 10.36 -4.66 7.72 -5 5 C-3.68 4.67 -2.36 4.34 -1 4 C-0.67 2.68 -0.34 1.36 0 0 Z " fill="#1799C8" transform="translate(481,246)"/>
<path d="M0 0 C5.28 0 10.56 0 16 0 C14.515 1.98 14.515 1.98 13 4 C12.01 4 11.02 4 10 4 C10 3.34 10 2.68 10 2 C6.7 1.67 3.4 1.34 0 1 C0 0.67 0 0.34 0 0 Z " fill="#0698CC" transform="translate(304,341)"/>
<path d="M0 0 C0.33 0 0.66 0 1 0 C1.602537 6.98942918 1.602537 6.98942918 -0.11328125 9.8671875 C-1.33745588 11.30861002 -2.66278229 12.66278229 -4 14 C-4.66 13.67 -5.32 13.34 -6 13 C-5.47599609 11.96939453 -5.47599609 11.96939453 -4.94140625 10.91796875 C-4.48636719 10.01691406 -4.03132813 9.11585938 -3.5625 8.1875 C-3.11003906 7.29417969 -2.65757812 6.40085937 -2.19140625 5.48046875 C-0.9168395 2.96000522 -0.9168395 2.96000522 0 0 Z " fill="#199AC5" transform="translate(464,361)"/>
<path d="M0 0 C3.43956951 0.63754034 5.80168914 1.98659646 8.6875 3.9375 C9.47511719 4.46214844 10.26273437 4.98679687 11.07421875 5.52734375 C13 7 13 7 14 9 C13.443125 8.71125 12.88625 8.4225 12.3125 8.125 C9.98702299 6.95525923 9.98702299 6.95525923 7.4375 6 C5 5 5 5 2 3 C2 2.34 2 1.68 2 1 C1.34 0.67 0.68 0.34 0 0 Z " fill="#1B96BF" transform="translate(453,98)"/>
<path d="M0 0 C1.15941038 3.47823115 0.70820884 5.45895578 0 9 C-0.66 9 -1.32 9 -2 9 C-2 11.64 -2 14.28 -2 17 C-2.66 16.34 -3.32 15.68 -4 15 C-3.71145081 9.32519935 -2.44406014 5.10064726 0 0 Z " fill="#129ACD" transform="translate(374,135)"/>
<path d="M0 0 C1.98 0.495 1.98 0.495 4 1 C3.34 3.64 2.68 6.28 2 9 C1.67 8.01 1.34 7.02 1 6 C0.34 6 -0.32 6 -1 6 C-0.67 4.02 -0.34 2.04 0 0 Z " fill="#05AEE1" transform="translate(353,284)"/>
<path d="M0 0 C0.625 1.8125 0.625 1.8125 1 4 C-1.40436026 7.60654039 -2.94679607 7.85452932 -7 9 C-6.02180976 7.68677212 -5.0424189 6.37443848 -4.0625 5.0625 C-3.51722656 4.33160156 -2.97195313 3.60070312 -2.41015625 2.84765625 C-1 1 -1 1 0 0 Z " fill="#1997C3" transform="translate(459,253)"/>
<path d="M0 0 C0 1.65 0 3.3 0 5 C-0.99 5.495 -0.99 5.495 -2 6 C-2.33 5.01 -2.66 4.02 -3 3 C-2.67 2.67 -2.34 2.34 -2 2 C-5.63 1.67 -9.26 1.34 -13 1 C-13 0.67 -13 0.34 -13 0 C-11.20909747 -0.19466332 -9.41723495 -0.38051213 -7.625 -0.5625 C-6.12839844 -0.71912109 -6.12839844 -0.71912109 -4.6015625 -0.87890625 C-2 -1 -2 -1 0 0 Z " fill="#13A0D2" transform="translate(361,243)"/>
<path d="M0 0 C1.65 0 3.3 0 5 0 C4.525625 0.886875 4.05125 1.77375 3.5625 2.6875 C2.20262851 5.57042756 1.45939614 7.87610623 1 11 C0.67 11 0.34 11 0 11 C0 7.37 0 3.74 0 0 Z " fill="#0FA1D5" transform="translate(354,328)"/>
<path d="M0 0 C0 0.66 0 1.32 0 2 C-0.99 2.495 -0.99 2.495 -2 3 C-4.00153469 6.17890804 -4.4971641 9.31253672 -5 13 C-5.33 13 -5.66 13 -6 13 C-6.48929664 5.78287462 -6.48929664 5.78287462 -4.125 2 C-2 0 -2 0 0 0 Z " fill="#1B97C3" transform="translate(398,267)"/>
<path d="M0 0 C-1.4562545 0.67119549 -2.91507867 1.33681807 -4.375 2 C-5.59316406 2.556875 -5.59316406 2.556875 -6.8359375 3.125 C-9 4 -9 4 -11 4 C-11.33 3.01 -11.66 2.02 -12 1 C-10.37681021 0.63762737 -8.7513642 0.28534843 -7.125 -0.0625 C-6.22007812 -0.25972656 -5.31515625 -0.45695312 -4.3828125 -0.66015625 C-2 -1 -2 -1 0 0 Z " fill="#1A99CB" transform="translate(399,113)"/>
<path d="M0 0 C0.66 0.33 1.32 0.66 2 1 C2.625 3.0625 2.625 3.0625 3 5 C2.01 5 1.02 5 0 5 C0 6.98 0 8.96 0 11 C-0.33 11 -0.66 11 -1 11 C-1.0270043 9.54176788 -1.04639787 8.08339325 -1.0625 6.625 C-1.07410156 5.81289063 -1.08570313 5.00078125 -1.09765625 4.1640625 C-1 2 -1 2 0 0 Z " fill="#0D9ED8" transform="translate(355,291)"/>
<path d="M0 0 C0.33 0.66 0.66 1.32 1 2 C-0.65 4.31 -2.3 6.62 -4 9 C-4.66 8.01 -5.32 7.02 -6 6 C-5.01 6 -4.02 6 -3 6 C-3 4.68 -3 3.36 -3 2 C-2.01 1.34 -1.02 0.68 0 0 Z " fill="#1E96C4" transform="translate(476,379)"/>
<path d="M0 0 C2 3.75 2 3.75 2 6 C-1.3 5.67 -4.6 5.34 -8 5 C-8 4.67 -8 4.34 -8 4 C-5.36 4 -2.72 4 0 4 C0 2.68 0 1.36 0 0 Z " fill="#01D6E9" transform="translate(353,175)"/>
</svg>
